<svg version="1.1" id="Layer_1" xmlns="http://www.w3.org/2000/svg" x="0" y="0" viewBox="0 0 42 42" xml:space="preserve">
  <style>
    .st2{fill:#fdc543}
  </style>
  <g id="Partner">
    <path id="Shape_00000050657661100635319650000015849021124407062411_" d="M39.4 0H2.6C1.2 0 0 1.2 0 2.6v29.8C0 33.8 1.2 35 2.6 35h12.9l-1.3 5.2h-1.1c-.5 0-.9.4-.9.9s.4.9.9.9h15.8c.5 0 .9-.4.9-.9s-.4-.9-.9-.9h-1.1L26.5 35h12.9c1.4 0 2.6-1.2 2.6-2.6V2.6C42 1.2 40.8 0 39.4 0zM1.8 8.8h38.5V28H1.8V8.8zm.8-7h36.8c.5 0 .9.4.9.9V7H1.8V2.6c0-.5.3-.8.8-.8zM26 40.2H16l1.3-5.2h7.4l1.3 5.2zm13.4-7H2.6c-.5 0-.9-.4-.9-.9v-2.6h38.5v2.6c0 .6-.3.9-.8.9z" fill="#7059a2"/>
    <path id="Fill-4" d="m14 10.8 1.8 1.4-3.9 4.6-1.6-1.4 3.7-4.6zm2.7 1.9 3-.5c.7-.1 1.4.1 1.9.6l2.2 2.2c.3.3.3.7 0 .9-.3.3-.7.3-.9 0l-1.6-1.6c-.7-.7-1.7-.7-2.4-.1L13 18.9c-.2-.3-.4-.8-.5-1.2l4.2-5zm9.2 0 3.3 5.5-.1.1-.4-.4c-.7-.7-1.9-.7-2.6.1-.3.4-.5.8-.5 1.3v.2c-.4 0-.8.2-1.1.5-.3.3-.5.7-.5 1.2v.2c-.5-.1-1 .1-1.3.5-.3.3-.5.7-.4 1.2v.3c-.4-.1-.9.1-1.3.4-.3.3-.4.7-.4 1.1 0 .2.1.4.1.5l-.6.4c-.3.2-.7.2-1-.1-.1-.1-.2-.3-.2-.5s.1-.3.2-.5l.1-.1 1.8-1.5-.7-.8-1.8 1.5-.5.7c-.3.3-.8.3-1.1 0-.1-.1-.2-.3-.2-.6 0-.2.1-.4.3-.5l2.3-1.9-.6-.8-2.2 1.8-.8.7c-.3.3-.8.3-1.1 0-.1-.1-.2-.3-.2-.6 0-.2.1-.4.2-.6l3.3-2.7-.6-.8-3.3 2.7c-.3.2-.6.2-.9 0-.2-.1-.2-.3-.2-.5s.1-.4.3-.5l6.6-5.3c.3-.3.8-.2 1 .1l1.6 1.6c.7.7 1.7.7 2.4 0s.7-1.7 0-2.4L23.4 13c.6-.2 1.6-.3 2.5-.3zm2.9-1.4 3 5.2-1.8 1.1-3.1-5.2 1.9-1.1zm0 9.3c-.3.3-.8.3-1.1 0l-.8-.7c-.2-.1-.3-.3-.3-.6 0-.2.1-.4.3-.6.2-.2.4-.2.6-.2.2 0 .4.1.5.2l.8.7c.2.1.2.3.2.6 0 .2-.1.4-.2.6zm-2 1.6c-.2.2-.6.2-.8 0l-.7-.6c-.1-.1-.2-.3-.2-.4 0-.2.1-.3.2-.5.1-.1.3-.2.4-.2.1 0 .3.1.4.2l.7.6c.1.1.2.3.2.4-.1.2-.1.3-.2.5zm-1.9 1.7c-.2.2-.5.2-.8 0l-.7-.6c-.1-.1-.2-.2-.2-.4s.1-.3.2-.4c.1-.1.3-.2.4-.2.1 0 .3.1.4.2l.6.6c.1.1.2.2.2.4.1.2 0 .3-.1.4zM23 25.6c-.2.2-.4.2-.6 0l-.6-.5c-.1-.1-.1-.2-.1-.3 0-.1 0-.2.1-.3.1-.1.2-.1.3-.1.1 0 .2 0 .3.1l.6.5c.1.1.1.2.1.3 0 .1 0 .2-.1.3zm-11.6-7.7c.1.4.4 1.2.7 1.7-.3.3-.5.7-.5 1.2s.2 1 .6 1.3c.3.2.6.4.9.4v.2c0 .5.2.9.5 1.3.3.3.8.5 1.3.5.3 0 .6-.1.8-.2.1.3.2.6.5.9.3.3.8.5 1.3.5.2 0 .3 0 .5-.1.1.3.2.6.5.9.3.4.8.5 1.3.5.4 0 .8-.1 1.1-.4l.6-.5.3.2c.3.2.6.4 1 .4s.7-.1 1-.4c.3-.3.4-.7.4-1v-.2c.1 0 .3.1.4.1.4 0 .8-.2 1.1-.5.3-.3.5-.7.5-1.1v-.2h.3c.4 0 .8-.2 1.1-.5.3-.3.5-.7.5-1.1h.3c.5 0 .9-.2 1.3-.5.3-.3.5-.8.5-1.3 0-.3-.1-.6-.2-.9l.4-.4 2.6-1.6c.2-.1.3-.5.2-.7l-3.6-6.1c-.1-.1-.2-.2-.3-.2-.1 0-.3 0-.4.1l-2.6 1.6c-.8 0-2.5 0-3.5.6l-.2-.2c-.7-.7-1.8-1.1-2.8-.9l-3 .5-2.4-1.9c-.2-.2-.5-.1-.7.1l-4.4 5.4c-.2.2-.1.5.1.7l2 1.8z" fill-rule="evenodd" clip-rule="evenodd" fill="#fdc543"/>
    <path id="Path_00000069366732425913998900000016611485596406317721_" class="st2" d="M5.2 4.4c0 .5-.4.9-.9.9s-.8-.4-.8-.9.4-.9.9-.9.8.4.8.9z"/>
    <path id="Path_00000088851122801448043670000008153617520488269708_" class="st2" d="M8.8 4.4c0 .5-.4.9-.9.9S7 4.9 7 4.4s.4-.9.9-.9.9.4.9.9z"/>
    <path id="Path_00000080905717953070227040000007646503477705981074_" class="st2" d="M12.2 4.4c0 .5-.4.9-.9.9s-.9-.4-.9-.9.4-.9.9-.9.9.4.9.9z"/>
  </g>
</svg>