<svg version="1.1" id="Layer_1" xmlns="http://www.w3.org/2000/svg" xmlns:xlink="http://www.w3.org/1999/xlink" x="0" y="0" viewBox="0 0 40 40" xml:space="preserve">
  <style>
    .st0{clip-path:url(#SVGID_00000142876819152154581500000005960242259382577803_)}.st1{clip-path:url(#SVGID_00000034786851622959237320000004369507740996129159_);fill:#7059a2}.st2{clip-path:url(#SVGID_00000061452526021028232300000016789813634094547632_)}.st3{clip-path:url(#SVGID_00000139979969754986642040000006848467364037538181_);fill:#fdc543}.st4{clip-path:url(#SVGID_00000171680431464879443270000002326118012052072578_)}.st5{clip-path:url(#SVGID_00000158730590789137640420000006272101549763538329_);fill:#fdc543}.st6{clip-path:url(#SVGID_00000176728777207209718790000012493556770487767743_)}.st7{clip-path:url(#SVGID_00000052823442707735318210000014842028869416448939_);fill:#fdc543}.st8{clip-path:url(#SVGID_00000166670189064325590020000009917990624927133078_)}.st9{clip-path:url(#SVGID_00000131348726180091788790000004477995570125026443_);fill:#fdc543}
  </style>
  <defs>
    <path id="SVGID_1_" d="M23.7 36.7h-7.5v-4.6h7.5v4.6zM37.9 5.1H27.3c-.4-.4-.8-.7-1.2-1-.3-.2-.6-.1-.8.1-.3.3-.2.7.1.8 2.6 1.8 4.1 4.7 4.1 7.9 0 5.3-4.3 9.6-9.6 9.6s-9.6-4.3-9.6-9.6 4.3-9.6 9.6-9.6c1 0 2.1.2 3.1.5.3.1.6-.1.7-.4.1-.3-.1-.6-.4-.7-1.1-.4-2.3-.6-3.4-.6C14 2.2 9.2 7 9.2 12.9S14 23.7 19.9 23.7 30.6 18.9 30.6 13c0-2.4-.8-4.8-2.3-6.7h9.5c.5 0 1 .4 1 1v18.4h-4.6c-.3 0-.6.3-.6.6s.3.6.6.6h4.6V30c0 .5-.4 1-1 1H2.1c-.5 0-1-.4-1-1v-3.1h30.1c.3 0 .6-.3.6-.6s-.3-.6-.6-.6h-30V7.2c0-.5.4-1 1-1h7c.3 0 .6-.3.6-.6s-.3-.5-.7-.5h-7C1 5.1 0 6 0 7.2v22.7C0 31.1 1 32 2.1 32H15v4.6h-1.8c-.3 0-.6.3-.6.6s.3.6.6.6h13.4c.3 0 .6-.3.6-.6s-.3-.6-.6-.6h-1.8V32h13c1.2 0 2.1-1 2.1-2.1V7.2c.1-1.2-.9-2.1-2-2.1z"/>
  </defs>
  <clipPath id="SVGID_00000017477570964999455280000005014035027341493692_">
    <use xlink:href="#SVGID_1_" overflow="visible"/>
  </clipPath>
  <g clip-path="url(#SVGID_00000017477570964999455280000005014035027341493692_)">
    <defs>
      <path id="SVGID_00000055668643976851904680000017236972324672598201_" d="M-747-349.9H693v1100H-747z"/>
    </defs>
    <clipPath id="SVGID_00000085973521916251070650000003852663654179935886_">
      <use xlink:href="#SVGID_00000055668643976851904680000017236972324672598201_" overflow="visible"/>
    </clipPath>
    <path clip-path="url(#SVGID_00000085973521916251070650000003852663654179935886_)" fill="#7059a2" d="M-5-2.8h50v45.6H-5z"/>
  </g>
  <defs>
    <path id="SVGID_00000090980192542399897560000017477388398211316642_" d="m18 10.1.1 1.6h-1.7l-.3-1.6H18zm5.8 1.6h-1.7l.1-1.6h1.9l-.3 1.6zm-1.9 2.8.1-1.6h1.5l-.3 1.6h-1.3zm-2.6-2.8-.1-1.6H21l-.1 1.6h-1.6zm1.5 1.2-.1 1.6h-1.2l-.1-1.6h1.4zm-4.2 0h1.6l.1 1.6h-1.4l-.3-1.6zm-.8-4.7c-.1-.7-.7-1.1-1.4-1.1h-.6c-.3 0-.6.3-.6.6s.3.6.6.6h.6c.1 0 .2.1.2.2l1.7 9.2c.1.3.3.5.6.5h.4c-.2.2-.3.4-.3.7 0 .6.5 1.1 1.1 1.1.6 0 1.1-.5 1.1-1.1 0-.3-.1-.5-.3-.7h2.4c-.2.2-.3.4-.3.7 0 .6.5 1.1 1.1 1.1.6 0 1.1-.5 1.1-1.1 0-.3-.1-.5-.3-.7h.5c.3 0 .6-.3.6-.6s-.3-.6-.6-.6h-6.1l-.2-1.3h6.5c.3 0 .5-.2.6-.5l1-5.5c0-.2 0-.4-.2-.6 0-.1-.2-.2-.4-.2h-8.8v-.7z"/>
  </defs>
  <clipPath id="SVGID_00000017506076380510699990000002089274549111959455_">
    <use xlink:href="#SVGID_00000090980192542399897560000017477388398211316642_" overflow="visible"/>
  </clipPath>
  <g clip-path="url(#SVGID_00000017506076380510699990000002089274549111959455_)">
    <defs>
      <path id="SVGID_00000079461195531592864980000014828407122097878662_" d="M-747-349.9H693v1100H-747z"/>
    </defs>
    <clipPath id="SVGID_00000127018895422720938780000003604480895010030739_">
      <use xlink:href="#SVGID_00000079461195531592864980000014828407122097878662_" overflow="visible"/>
    </clipPath>
    <path clip-path="url(#SVGID_00000127018895422720938780000003604480895010030739_)" fill="#fdc543" d="M8.2 2.1h22.2v22.8H8.2z"/>
  </g>
  <defs>
    <path id="SVGID_00000047019065693843535190000008621259726037401734_" d="M3.8 21.5h3.5c.3 0 .6-.3.6-.6s-.3-.6-.6-.6H3.8c-.3 0-.6.3-.6.6s.3.6.6.6z"/>
  </defs>
  <clipPath id="SVGID_00000003078120600852645590000002731916340476240773_">
    <use xlink:href="#SVGID_00000047019065693843535190000008621259726037401734_" overflow="visible"/>
  </clipPath>
  <g clip-path="url(#SVGID_00000003078120600852645590000002731916340476240773_)">
    <defs>
      <path id="SVGID_00000095329698364387754220000015307638490767518884_" d="M-747-349.9H693v1100H-747z"/>
    </defs>
    <clipPath id="SVGID_00000059289272350178517650000018149135950945730460_">
      <use xlink:href="#SVGID_00000095329698364387754220000015307638490767518884_" overflow="visible"/>
    </clipPath>
    <path clip-path="url(#SVGID_00000059289272350178517650000018149135950945730460_)" fill="#fdc543" d="M-1.8 15.3h14.6v11.2H-1.8z"/>
  </g>
  <defs>
    <path id="SVGID_00000107580474279243835110000013968517161868434611_" d="M3.8 24.1h6.5c.3 0 .6-.3.6-.6s-.3-.6-.6-.6H3.8c-.3 0-.6.3-.6.6 0 .4.3.6.6.6z"/>
  </defs>
  <clipPath id="SVGID_00000088822354456223098010000014481158806243750819_">
    <use xlink:href="#SVGID_00000107580474279243835110000013968517161868434611_" overflow="visible"/>
  </clipPath>
  <g clip-path="url(#SVGID_00000088822354456223098010000014481158806243750819_)">
    <defs>
      <path id="SVGID_00000032611677972752222060000016762875950883543704_" d="M-747-349.9H693v1100H-747z"/>
    </defs>
    <clipPath id="SVGID_00000139998186645350909050000015386318036537332380_">
      <use xlink:href="#SVGID_00000032611677972752222060000016762875950883543704_" overflow="visible"/>
    </clipPath>
    <path clip-path="url(#SVGID_00000139998186645350909050000015386318036537332380_)" fill="#fdc543" d="M-1.8 18h17.6v11.2H-1.8z"/>
  </g>
  <defs>
    <path id="SVGID_00000165211292826818333500000000812660859518808754_" d="M34.8 8.5c-.3 0-.6.3-.6.6v1.5h-1.5c-.3 0-.6.3-.6.6s.3.6.6.6h1.5v1.5c0 .3.3.6.6.6s.6-.3.6-.6v-1.5h1.5c.3 0 .6-.3.6-.6s-.3-.6-.6-.6h-1.5V9.1c-.1-.4-.3-.6-.6-.6z"/>
  </defs>
  <clipPath id="SVGID_00000031929574298290005540000014359303901051843752_">
    <use xlink:href="#SVGID_00000165211292826818333500000000812660859518808754_" overflow="visible"/>
  </clipPath>
  <g clip-path="url(#SVGID_00000031929574298290005540000014359303901051843752_)">
    <defs>
      <path id="SVGID_00000029006069515297223190000014623482502831220401_" d="M-747-349.9H693v1100H-747z"/>
    </defs>
    <clipPath id="SVGID_00000038371252842752170760000013168994176662578109_">
      <use xlink:href="#SVGID_00000029006069515297223190000014623482502831220401_" overflow="visible"/>
    </clipPath>
    <path clip-path="url(#SVGID_00000038371252842752170760000013168994176662578109_)" fill="#fdc543" d="M27.1 3.5h15.3v15.3H27.1z"/>
  </g>
</svg>