<svg version="1.1" id="Layer_1" xmlns="http://www.w3.org/2000/svg" x="0" y="0" viewBox="0 0 42 42" xml:space="preserve">
  <style>
    .st0{fill:#fdc543}.st1{fill:#7059a2}
  </style>
  <g id="Web-Development">
    <path id="Path_00000175320570690088714860000003897748308903078841_" class="st0" d="M34.1 28.1v1.6h-7c0-3.4-2.7-6.1-6.1-6.1s-6.1 2.7-6.1 6.1h-7v-1.6l3.7-1.2c.2-.6.4-1.2.7-1.8l-1.8-3.5 2.3-2.3 3.5 1.8c.6-.3 1.1-.5 1.8-.7l1.2-3.7h3.3l1.2 3.7c.6.2 1.2.4 1.8.7l3.5-1.8 2.3 2.3-1.8 3.5c.3.6.5 1.1.7 1.8l3.8 1.2z"/>
    <path id="Shape" class="st1" d="M39.4 0H2.6C1.2 0 0 1.2 0 2.6v29.8C0 33.8 1.2 35 2.6 35h12.9l-1.3 5.2h-1.1c-.5 0-.9.4-.9.9s.4.9.9.9h15.8c.5 0 .9-.4.9-.9s-.4-.9-.9-.9h-1.1L26.5 35h12.9c1.4 0 2.6-1.2 2.6-2.6V2.6C42 1.2 40.8 0 39.4 0zM1.8 8.8h38.5V28H1.8V8.8zm.8-7h36.8c.5 0 .9.4.9.9V7H1.8V2.6c0-.5.3-.8.8-.8zM26 40.2H16l1.3-5.2h7.4l1.3 5.2zm13.4-7H2.6c-.5 0-.9-.4-.9-.9v-2.6h38.5v2.6c0 .6-.3.9-.8.9z"/>
    <path id="Path_00000042002593105116985430000009586660011598965923_" class="st1" d="M5.2 4.4c0 .5-.4.9-.9.9s-.8-.4-.8-.9.4-.9.9-.9.8.4.8.9z"/>
    <path id="Path_00000065058951753980428090000013510956554789026744_" class="st1" d="M8.8 4.4c0 .5-.4.9-.9.9S7 4.9 7 4.4s.4-.9.9-.9.9.4.9.9z"/>
    <path id="Path_00000100371805476963578680000018123615243388252332_" class="st1" d="M12.2 4.4c0 .5-.4.9-.9.9s-.9-.4-.9-.9.4-.9.9-.9.9.4.9.9z"/>
    <path id="Path_00000114768866013578258940000001589020914161218951_" class="st0" d="M14 13.1H5.2c-.5 0-.9-.4-.9-.9s.4-.9.9-.9H14c.5 0 .9.4.9.9s-.4.9-.9.9z"/>
    <path id="Path_00000017504757050990117760000014033611402603584703_" class="st0" d="M14 16.6H5.2c-.5 0-.9-.4-.9-.9s.4-.9.9-.9H14c.5 0 .9.4.9.9s-.4.9-.9.9z"/>
    <path id="Path_00000164505137446181404580000002701313854989705346_" class="st0" d="m29.8 16.3 1.8-5.2c.2-.5.7-.7 1.1-.6.5.2.7.7.6 1.1l-1.8 5.3c-.1.3-.4.5-.7.6-.3.1-.6 0-.8-.3s-.3-.6-.2-.9z"/>
    <path id="Path_00000141444568054527528790000006079786877012419519_" class="st0" d="M35 16.6c-.4 0-.7-.2-.8-.5-.1-.3-.1-.7.2-1l1.1-1.1-1.1-1.1c-.3-.3-.3-.9 0-1.2s.9-.3 1.2 0l1.8 1.8c.2.2.3.4.3.6s-.1.5-.3.6c-1.9 1.8-1.9 1.9-2.4 1.9z"/>
    <path id="Path_00000046310789185945876500000007669940735138307767_" class="st0" d="M28 16.6c-.5 0-.5-.1-2.4-2-.2-.2-.3-.4-.3-.6s.1-.5.3-.6l1.8-1.8c.3-.3.9-.3 1.2 0s.3.9 0 1.2L27.5 14l1.1 1.1c.3.3.3.6.2 1-.1.3-.4.5-.8.5z"/>
  </g>
</svg>