<svg version="1.1" id="Layer_1" xmlns="http://www.w3.org/2000/svg" x="0" y="0" viewBox="0 0 42 42" xml:space="preserve">
  <style>
    .st1{fill:#fdc543}
  </style>
  <g id="iconfinder_online-support-call-centre-service_3709737">
    <path id="Shape_00000094612114056123453110000008312196416004822176_" d="M38.6 9.5h-2V3.4c0-1.9-1.5-3.4-3.4-3.4H8.8C6.9 0 5.4 1.5 5.4 3.4v6.1h-2C1.5 9.5 0 11 0 12.9v21.7C0 36.5 1.5 38 3.4 38h8.8v2.7H9.5V42h23v-1.4h-2.7v-2.7h8.8c1.9 0 3.4-1.5 3.4-3.4V12.9c0-1.9-1.5-3.4-3.4-3.4zM6.8 3.4c0-1.1.9-2 2-2h24.4c1.1 0 2 .9 2 2V21c0 1.1-.9 2-2 2h-9.5v3.5L17.8 23h-9c-1.1 0-2-.9-2-2V3.4zm-3.4 7.4h2V21c0 1.9 1.5 3.4 3.4 3.4h8.6L25 29v-4.6h8.1c1.9 0 3.4-1.5 3.4-3.4V10.8h2c1.1 0 2 .9 2 2v18.3H1.4V12.9c0-1.1.9-2.1 2-2.1zm25.1 29.8h-15v-2.7h14.9v2.7zm10.1-4H3.4c-1.1 0-2-.9-2-2v-2h39.3v2c-.1 1.1-1 2-2.1 2z" fill="#7059a2"/>
    <path id="Rectangle_00000096752320563770794700000009157746541862915217_" class="st1" d="M16.3 33.9h1.4v1.4h-1.4z"/>
    <path id="Rectangle_00000150787972032993164220000008141019365425848200_" class="st1" d="M19 33.9h4.1v1.4H19z"/>
    <path id="Rectangle_00000173878550399222520280000013100060027802140804_" class="st1" d="M24.4 33.9h1.4v1.4h-1.4z"/>
    <path id="Shape_00000078730588041424330270000000816465393906264970_" class="st1" d="M12.9 19h3.4v-8.1h-1.4v-.7c0-3.4 2.7-6.1 6.1-6.1s6.1 2.7 6.1 6.1v.7h-1.4V19h1.4v.7c0 .4-.3.7-.7.7h-3.5c-.3-.8-1-1.4-1.9-1.4-1.1 0-2 .9-2 2s.9 2 2 2c.9 0 1.6-.6 1.9-1.4h3.5c1.1 0 2-.9 2-2V19h.7c1.9 0 3.4-1.5 3.4-3.4v-1.4c0-1.9-1.5-3.4-3.4-3.4h-.7v-.7c0-4.1-3.3-7.5-7.5-7.5s-7.5 3.3-7.5 7.5v.7h-.7c-1.9 0-3.4 1.5-3.4 3.4v1.4c.2 1.8 1.7 3.4 3.6 3.4zm8.1 2.7c-.4 0-.7-.3-.7-.7s.3-.7.7-.7.7.3.7.7-.3.7-.7.7zm10.2-7.5v1.4c0 .9-.6 1.6-1.4 1.9v-3.9h-1.4v4.1H27v-5.4h2c1.2-.1 2.2.8 2.2 1.9zm-20.4 0c0-1.1.9-2 2-2h2v5.4h-1.4v-4.1H12v3.9c-.8-.3-1.4-1-1.4-1.9v-1.3z"/>
    <path id="Rectangle_00000012466299229510444320000015349268555185415351_" class="st1" d="M12.2 28.5h1.4v1.4h-1.4z"/>
    <path id="Rectangle_00000100369035863829025090000003554082362532211358_" class="st1" d="M2.7 28.5h8.1v1.4H2.7z"/>
    <path id="Rectangle_00000070090215629177808950000013313003035949338251_" class="st1" d="M2.7 25.7h10.8v1.4H2.7z"/>
    <path id="Rectangle_00000152260907404937606610000010597333743966855615_" class="st1" d="M37.9 28.5h1.4v1.4h-1.4z"/>
    <path id="Rectangle_00000129200759110792378910000000754145286362897557_" class="st1" d="M28.5 28.5h8.1v1.4h-8.1z"/>
    <path id="Rectangle_00000150090019690070728190000017783206600070842020_" class="st1" d="M28.5 25.7h10.8v1.4H28.5z"/>
  </g>
</svg>