<svg version="1.1" id="Layer_1" xmlns="http://www.w3.org/2000/svg" xmlns:xlink="http://www.w3.org/1999/xlink" x="0" y="0" viewBox="0 0 42 42" xml:space="preserve">
  <style>
    .st0{clip-path:url(#SVGID_00000101093110589734710600000005714618202053230997_)}.st1{clip-path:url(#SVGID_00000080911818703002085060000015125114487799503550_);fill:#7059a2}.st2{clip-path:url(#SVGID_00000089536967771349714060000015224114736575601584_)}.st3{clip-path:url(#SVGID_00000161614406257940174010000013005718294812241064_);fill:#7059a2}.st4{clip-path:url(#SVGID_00000085244112038105598440000016591620993249306759_)}.st5{clip-path:url(#SVGID_00000116920524895984799970000006477510497640254087_);fill:#fdc543}.st6{clip-path:url(#SVGID_00000079447090921540275320000002649173958820500392_)}.st7{clip-path:url(#SVGID_00000051375097457366908460000015199480586497750954_);fill:#fdc543}.st8{clip-path:url(#SVGID_00000100378930064538714760000004224551795281759375_)}.st9{clip-path:url(#SVGID_00000022561579243121249450000015696663834643781269_);fill:#fdc543}.st10{clip-path:url(#SVGID_00000048481568328480534020000008625610536773401243_)}.st11{clip-path:url(#SVGID_00000012459943361495488180000001916583124730772136_);fill:#fdc543}.st12{clip-path:url(#SVGID_00000156567633211624502760000006074000808987506839_)}.st13{clip-path:url(#SVGID_00000026866434096603865230000014397827317238142386_);fill:#fdc543}.st14{clip-path:url(#SVGID_00000085945528065385389270000005928750471023534010_)}.st15{clip-path:url(#SVGID_00000097502330235028632910000015684392676041107872_);fill:#fdc543}.st16{clip-path:url(#SVGID_00000065045353097048325860000003184833060003683985_)}.st17{clip-path:url(#SVGID_00000173151100669200511690000014121668214706625449_);fill:#fdc543}.st18{clip-path:url(#SVGID_00000041296538947118996970000010465432232181146268_)}.st19{clip-path:url(#SVGID_00000176025820263087685160000001253899743608762288_);fill:#fdc543}.st20{clip-path:url(#SVGID_00000123418170840629083910000002890065535603310223_)}.st21{clip-path:url(#SVGID_00000169531260570517003330000006366759261637126528_);fill:#fdc543}.st22{clip-path:url(#SVGID_00000035513962985642367620000011055117597659910552_)}.st23,.st24{clip-path:url(#SVGID_00000109749436893950862750000009187329729738854557_);fill:#fdc543}.st24{clip-path:url(#SVGID_00000114785774073159844850000009363390504366397080_)}
  </style>
  <defs>
    <path id="SVGID_1_" d="m31.5 16.3-.9 1 4.3 3.9c1 .9 1.6 2.2 1.6 3.6V42h1.4V24.9c0-1.8-.7-3.4-2-4.6l-4.4-4z"/>
  </defs>
  <clipPath id="SVGID_00000142893189389106613680000008650244044399701930_">
    <use xlink:href="#SVGID_1_" overflow="visible"/>
  </clipPath>
  <g clip-path="url(#SVGID_00000142893189389106613680000008650244044399701930_)">
    <defs>
      <path id="SVGID_00000084517215120853868930000004420796650893084069_" d="M-190.8-349h1440V751h-1440z"/>
    </defs>
    <clipPath id="SVGID_00000083082348980444511950000007577951919071698592_">
      <use xlink:href="#SVGID_00000084517215120853868930000004420796650893084069_" overflow="visible"/>
    </clipPath>
    <path clip-path="url(#SVGID_00000083082348980444511950000007577951919071698592_)" fill="#7059a2" d="M25.5 11.3h17.3V47H25.5z"/>
  </g>
  <defs>
    <path id="SVGID_00000008850326320664993910000016828428146757462445_" d="M28 4.2H5.6v-.7c0-1.2.9-2.1 2.1-2.1h18.2c1.2 0 2.1.9 2.1 2.1v.7zm0 18.6-.8-.8c-1.3-1.4-3.5-1.5-5-.3-.8.7-1.3 1.6-1.3 2.7-.1 1 .3 2 1.1 2.8l4.5 4.5c-1.7 2.7-2.6 5.8-2.6 9H7.7c-1.2 0-2.1-.9-2.1-2.1v-2.1h17.5V35H5.6V5.6H28v17.2zM25.9 0H7.7C5.8 0 4.2 1.6 4.2 3.5v35c0 1.9 1.6 3.5 3.5 3.5h17.5v-1.3c0-3.2.9-6.2 2.7-8.9.2-.3.1-.6-.1-.9L22.9 26c-.5-.5-.7-1.1-.7-1.7 0-.6.3-1.2.8-1.6 1-.7 2.3-.6 3.1.2l6.9 6.9 1-1-4.7-4.7V3.5c.1-1.9-1.5-3.5-3.4-3.5z"/>
  </defs>
  <clipPath id="SVGID_00000158008394426822719310000017312657663755174040_">
    <use xlink:href="#SVGID_00000008850326320664993910000016828428146757462445_" overflow="visible"/>
  </clipPath>
  <g clip-path="url(#SVGID_00000158008394426822719310000017312657663755174040_)">
    <defs>
      <path id="SVGID_00000147178374817814527350000017095129833829540480_" d="M-190.8-349h1440V751h-1440z"/>
    </defs>
    <clipPath id="SVGID_00000110452456513093257810000013791871421487925939_">
      <use xlink:href="#SVGID_00000147178374817814527350000017095129833829540480_" overflow="visible"/>
    </clipPath>
    <path clip-path="url(#SVGID_00000110452456513093257810000013791871421487925939_)" fill="#7059a2" d="M-.8-5h39.9v52H-.8z"/>
  </g>
  <defs>
    <path id="SVGID_00000170957363156881675870000006388426909835314569_" d="M8.4 8.4h2.8v2.8H8.4V8.4zm0 4.2h2.8c.8 0 1.4-.6 1.4-1.4V8.4c0-.8-.6-1.4-1.4-1.4H8.4C7.6 7 7 7.6 7 8.4v2.8c0 .8.6 1.4 1.4 1.4z"/>
  </defs>
  <clipPath id="SVGID_00000070091319693082754700000013102016881644485559_">
    <use xlink:href="#SVGID_00000170957363156881675870000006388426909835314569_" overflow="visible"/>
  </clipPath>
  <g clip-path="url(#SVGID_00000070091319693082754700000013102016881644485559_)">
    <defs>
      <path id="SVGID_00000036243152352975627860000013847970077706807968_" d="M-190.8-349h1440V751h-1440z"/>
    </defs>
    <clipPath id="SVGID_00000083059011917815289160000006991984943422742186_">
      <use xlink:href="#SVGID_00000036243152352975627860000013847970077706807968_" overflow="visible"/>
    </clipPath>
    <path clip-path="url(#SVGID_00000083059011917815289160000006991984943422742186_)" fill="#fdc543" d="M2 2h15.6v15.6H2z"/>
  </g>
  <defs>
    <path id="SVGID_00000104685675867420250270000010478678998796566683_" d="M15.4 8.4h2.8v2.8h-2.8V8.4zm0 4.2h2.8c.8 0 1.4-.6 1.4-1.4V8.4c0-.8-.6-1.4-1.4-1.4h-2.8c-.8 0-1.4.6-1.4 1.4v2.8c0 .8.6 1.4 1.4 1.4z"/>
  </defs>
  <clipPath id="SVGID_00000094598029919346879520000001924102168121407155_">
    <use xlink:href="#SVGID_00000104685675867420250270000010478678998796566683_" overflow="visible"/>
  </clipPath>
  <g clip-path="url(#SVGID_00000094598029919346879520000001924102168121407155_)">
    <defs>
      <path id="SVGID_00000083080229733517938340000018243401008054379690_" d="M-190.8-349h1440V751h-1440z"/>
    </defs>
    <clipPath id="SVGID_00000090991408815426785220000006335403976365327024_">
      <use xlink:href="#SVGID_00000083080229733517938340000018243401008054379690_" overflow="visible"/>
    </clipPath>
    <path clip-path="url(#SVGID_00000090991408815426785220000006335403976365327024_)" fill="#fdc543" d="M9 2h15.6v15.6H9z"/>
  </g>
  <defs>
    <path id="SVGID_00000041286177007542689500000015081575413134637707_" d="M22.4 8.4h2.8v2.8h-2.8V8.4zm0 4.2h2.8c.8 0 1.4-.6 1.4-1.4V8.4c0-.8-.6-1.4-1.4-1.4h-2.8c-.8 0-1.4.6-1.4 1.4v2.8c0 .8.6 1.4 1.4 1.4z"/>
  </defs>
  <clipPath id="SVGID_00000092422908023655517000000012280573256874873739_">
    <use xlink:href="#SVGID_00000041286177007542689500000015081575413134637707_" overflow="visible"/>
  </clipPath>
  <g clip-path="url(#SVGID_00000092422908023655517000000012280573256874873739_)">
    <defs>
      <path id="SVGID_00000073704429937568857330000017227755941660615355_" d="M-190.8-349h1440V751h-1440z"/>
    </defs>
    <clipPath id="SVGID_00000106136221840192352350000000188595888828497299_">
      <use xlink:href="#SVGID_00000073704429937568857330000017227755941660615355_" overflow="visible"/>
    </clipPath>
    <path clip-path="url(#SVGID_00000106136221840192352350000000188595888828497299_)" fill="#fdc543" d="M16 2h15.6v15.6H16z"/>
  </g>
  <defs>
    <path id="SVGID_00000114059771065832302790000015642066826739581373_" d="M8.4 15.4h2.8v2.8H8.4v-2.8zm0 4.2h2.8c.8 0 1.4-.6 1.4-1.4v-2.8c0-.8-.6-1.4-1.4-1.4H8.4c-.8 0-1.4.6-1.4 1.4v2.8c0 .8.6 1.4 1.4 1.4z"/>
  </defs>
  <clipPath id="SVGID_00000123439960034592704550000000347546323464578993_">
    <use xlink:href="#SVGID_00000114059771065832302790000015642066826739581373_" overflow="visible"/>
  </clipPath>
  <g clip-path="url(#SVGID_00000123439960034592704550000000347546323464578993_)">
    <defs>
      <path id="SVGID_00000113340467308205202450000009285616245409718430_" d="M-190.8-349h1440V751h-1440z"/>
    </defs>
    <clipPath id="SVGID_00000039851971123323386440000012567839677719918782_">
      <use xlink:href="#SVGID_00000113340467308205202450000009285616245409718430_" overflow="visible"/>
    </clipPath>
    <path clip-path="url(#SVGID_00000039851971123323386440000012567839677719918782_)" fill="#fdc543" d="M2 9h15.6v15.6H2z"/>
  </g>
  <defs>
    <path id="SVGID_00000129916277977174116540000012370675176600172961_" d="M8.4 22.4h2.8v2.8H8.4v-2.8zm0 4.2h2.8c.8 0 1.4-.6 1.4-1.4v-2.8c0-.8-.6-1.4-1.4-1.4H8.4c-.8 0-1.4.6-1.4 1.4v2.8c0 .8.6 1.4 1.4 1.4z"/>
  </defs>
  <clipPath id="SVGID_00000008118838569806048250000017818047750475292289_">
    <use xlink:href="#SVGID_00000129916277977174116540000012370675176600172961_" overflow="visible"/>
  </clipPath>
  <g clip-path="url(#SVGID_00000008118838569806048250000017818047750475292289_)">
    <defs>
      <path id="SVGID_00000179622325965336679760000009401326108692439185_" d="M-190.8-349h1440V751h-1440z"/>
    </defs>
    <clipPath id="SVGID_00000168819254556128277760000016117387844026735241_">
      <use xlink:href="#SVGID_00000179622325965336679760000009401326108692439185_" overflow="visible"/>
    </clipPath>
    <path clip-path="url(#SVGID_00000168819254556128277760000016117387844026735241_)" fill="#fdc543" d="M2 16h15.6v15.6H2z"/>
  </g>
  <defs>
    <path id="SVGID_00000010292953219366206990000015679145850200737711_" d="M15.4 15.4h2.8v2.8h-2.8v-2.8zm0 4.2h2.8c.8 0 1.4-.6 1.4-1.4v-2.8c0-.8-.6-1.4-1.4-1.4h-2.8c-.8 0-1.4.6-1.4 1.4v2.8c0 .8.6 1.4 1.4 1.4z"/>
  </defs>
  <clipPath id="SVGID_00000014597893628294025390000016768300802918854590_">
    <use xlink:href="#SVGID_00000010292953219366206990000015679145850200737711_" overflow="visible"/>
  </clipPath>
  <g clip-path="url(#SVGID_00000014597893628294025390000016768300802918854590_)">
    <defs>
      <path id="SVGID_00000120522146415196492140000015901239688999887039_" d="M-190.8-349h1440V751h-1440z"/>
    </defs>
    <clipPath id="SVGID_00000176020141653035055730000016997398948736439995_">
      <use xlink:href="#SVGID_00000120522146415196492140000015901239688999887039_" overflow="visible"/>
    </clipPath>
    <path clip-path="url(#SVGID_00000176020141653035055730000016997398948736439995_)" fill="#fdc543" d="M9 9h15.6v15.6H9z"/>
  </g>
  <defs>
    <path id="SVGID_00000183945627503014804590000000787600259165909904_" d="M22.4 15.4h2.8v2.8h-2.8v-2.8zm0 4.2h2.8c.8 0 1.4-.6 1.4-1.4v-2.8c0-.8-.6-1.4-1.4-1.4h-2.8c-.8 0-1.4.6-1.4 1.4v2.8c0 .8.6 1.4 1.4 1.4z"/>
  </defs>
  <clipPath id="SVGID_00000140735843195159126040000013737364268580026807_">
    <use xlink:href="#SVGID_00000183945627503014804590000000787600259165909904_" overflow="visible"/>
  </clipPath>
  <g clip-path="url(#SVGID_00000140735843195159126040000013737364268580026807_)">
    <defs>
      <path id="SVGID_00000108266853779483980160000005434126426677831067_" d="M-190.8-349h1440V751h-1440z"/>
    </defs>
    <clipPath id="SVGID_00000009592511585523639640000009766444921883049088_">
      <use xlink:href="#SVGID_00000108266853779483980160000005434126426677831067_" overflow="visible"/>
    </clipPath>
    <path clip-path="url(#SVGID_00000009592511585523639640000009766444921883049088_)" fill="#fdc543" d="M16 9h15.6v15.6H16z"/>
  </g>
  <defs>
    <path id="SVGID_00000003088001317812382040000006540732748536915879_" d="M15.4 22.4h2.8v2.8h-2.8v-2.8zm0 4.2h2.8c.8 0 1.4-.6 1.4-1.4v-2.8c0-.8-.6-1.4-1.4-1.4h-2.8c-.8 0-1.4.6-1.4 1.4v2.8c0 .8.6 1.4 1.4 1.4z"/>
  </defs>
  <clipPath id="SVGID_00000040563803782743942940000000472398257898861952_">
    <use xlink:href="#SVGID_00000003088001317812382040000006540732748536915879_" overflow="visible"/>
  </clipPath>
  <g clip-path="url(#SVGID_00000040563803782743942940000000472398257898861952_)">
    <defs>
      <path id="SVGID_00000114056469515591727680000013497020302852712069_" d="M-190.8-349h1440V751h-1440z"/>
    </defs>
    <clipPath id="SVGID_00000080174226526106843650000013269959732052333992_">
      <use xlink:href="#SVGID_00000114056469515591727680000013497020302852712069_" overflow="visible"/>
    </clipPath>
    <path clip-path="url(#SVGID_00000080174226526106843650000013269959732052333992_)" fill="#fdc543" d="M9 16h15.6v15.6H9z"/>
  </g>
  <defs>
    <path id="SVGID_00000018922651386635374980000012244700422180685966_" d="M8.4 29.4h2.8v2.8H8.4v-2.8zm0 4.2h2.8c.8 0 1.4-.6 1.4-1.4v-2.8c0-.8-.6-1.4-1.4-1.4H8.4c-.8 0-1.4.6-1.4 1.4v2.8c0 .8.6 1.4 1.4 1.4z"/>
  </defs>
  <clipPath id="SVGID_00000160872741451007768180000017361573717131242382_">
    <use xlink:href="#SVGID_00000018922651386635374980000012244700422180685966_" overflow="visible"/>
  </clipPath>
  <g clip-path="url(#SVGID_00000160872741451007768180000017361573717131242382_)">
    <defs>
      <path id="SVGID_00000088122517748453938190000004113979953391846586_" d="M-190.8-349h1440V751h-1440z"/>
    </defs>
    <clipPath id="SVGID_00000056417753427627228380000006075515144623920527_">
      <use xlink:href="#SVGID_00000088122517748453938190000004113979953391846586_" overflow="visible"/>
    </clipPath>
    <path clip-path="url(#SVGID_00000056417753427627228380000006075515144623920527_)" fill="#fdc543" d="M2 23h15.6v15.6H2z"/>
  </g>
  <defs>
    <path id="SVGID_00000103985557089281568050000017348218545347298959_" d="M15.4 29.4h2.8v2.8h-2.8v-2.8zm0 4.2h2.8c.8 0 1.4-.6 1.4-1.4v-2.8c0-.8-.6-1.4-1.4-1.4h-2.8c-.8 0-1.4.6-1.4 1.4v2.8c0 .8.6 1.4 1.4 1.4z"/>
  </defs>
  <clipPath id="SVGID_00000078036507540597662340000001096646598793117119_">
    <use xlink:href="#SVGID_00000103985557089281568050000017348218545347298959_" overflow="visible"/>
  </clipPath>
  <g clip-path="url(#SVGID_00000078036507540597662340000001096646598793117119_)">
    <defs>
      <path id="SVGID_00000103237490993543500420000008928800003415697841_" d="M-190.8-349h1440V751h-1440z"/>
    </defs>
    <clipPath id="SVGID_00000062156553191649341610000006884346132134947998_">
      <use xlink:href="#SVGID_00000103237490993543500420000008928800003415697841_" overflow="visible"/>
    </clipPath>
    <path clip-path="url(#SVGID_00000062156553191649341610000006884346132134947998_)" fill="#fdc543" d="M9 23h15.6v15.6H9z"/>
  </g>
  <defs>
    <path id="SVGID_00000167358745273861054910000014059369600213323693_" d="M16.1 37.8h1.4v1.4h-1.4z"/>
  </defs>
  <clipPath id="SVGID_00000040558765423679977440000010256156621714988727_">
    <use xlink:href="#SVGID_00000167358745273861054910000014059369600213323693_" overflow="visible"/>
  </clipPath>
  <path clip-path="url(#SVGID_00000040558765423679977440000010256156621714988727_)" fill="#fdc543" d="M11.1 32.8h11.4v11.4H11.1z"/>
</svg>