<svg xmlns="http://www.w3.org/2000/svg" viewBox="0 0 42 42" xml:space="preserve">
  <g fill-rule="evenodd" clip-rule="evenodd">
    <path d="M40.6 35.2h-7V23.3c0-.4.3-.7.7-.7h5.6c.4 0 .7.3.7.7v11.9zm0 2.1c0 .4-.3.7-.7.7h-5.6c-.4 0-.7-.3-.7-.7v-.7h7v.7zM14.7 17H4.2V6.5c0-1.2.9-2.1 2.1-2.1h29.4c1.2 0 2.1.9 2.1 2.1v14.7h-3.5c-1.2 0-2.1.9-2.1 2.1v.7H16.8v-4.9s.1-2.1-2.1-2.1zm2.1 12.6h15.4v-4.2H16.8v4.2zm2.8 5.6h2.8V31h-2.8v4.2zm-2.8 0h1.4V31h-1.4v4.2zm9.1 1.4c.9 0 1.7.6 2 1.4H16.7c.1-.2.1-.5.1-.7v-.7h9.1zm-10.5-1.4h-14V19.1c0-.4.3-.7.7-.7h12.6c.4 0 .7.3.7.7v16.1zm0 2.1c0 .4-.3.7-.7.7H2.1c-.4 0-.7-.3-.7-.7v-.7h14v.7zm24.5-16.1h-.7V6.5c0-1.9-1.6-3.5-3.5-3.5H6.3C4.4 3 2.8 4.6 2.8 6.5V17h-.7C.9 17 0 17.9 0 19.1v18.2c0 1.2.9 2.1 2.1 2.1h26.6c.4 0 .7-.3.7-.7 0-1.9-1.6-3.5-3.5-3.5h-2.1V31h8.4v6.3c0 1.2.9 2.1 2.1 2.1h5.6c1.2 0 2.1-.9 2.1-2.1v-14c0-1.2-.9-2.1-2.1-2.1z" fill="#7059a2"/>
    <path d="M8.4 25.5c-.3-.3-.7-.3-1 0l-3 3c-.3.3-.3.7 0 1s.7.3 1 0l3-3c.1-.2-.2-.6 0-1m4.1 0c-.3-.3-.7-.3-1 0l-3 3c-.3.3-.3.7 0 1s.7.3 1 0l3-3c.3-.3.3-.7 0-1m15.3-15.3c-.3-.3-.7-.3-1 0l-6.9 6.9c-.3.3-.3.7 0 1s.7.3 1 0l6.9-6.9c.3-.3.3-.7 0-1m-3.6-.7c-.3-.3-.7-.3-1 0l-6.9 6.9c-.3.3-.3.7 0 1s.7.3 1 0l6.9-6.9c.3-.3.3-.7 0-1m14.4 17.9c-.3-.3-.7-.3-1 0l-2 2c-.3.3-.3.7 0 1 .3.3.7.3 1 0l2-2c.3-.3.2-.7 0-1M21 26.8c-.4 0-.7.3-.7.7 0 .4.3.7.7.7.4 0 .7-.3.7-.7 0-.4-.3-.7-.7-.7m1.4-21h-2.8c-.4 0-.7.3-.7.7 0 .4.3.7.7.7h2.8c.4 0 .7-.3.7-.7 0-.4-.3-.7-.7-.7" fill="#fdc543"/>
  </g>
</svg>