<svg version="1.1" id="Layer_1" xmlns="http://www.w3.org/2000/svg" x="0" y="0" viewBox="0 0 42 42" xml:space="preserve">
  <style>
    .st0{fill:#fdc543}.st1{fill:#7059a2}
  </style>
  <path id="Path_00000054960572912907380920000015082857834784218549_" class="st0" d="M4.4 36.8c-.5 0-.9.4-.9.9s.4.9.9.9.9-.4.9-.9-.4-.9-.9-.9z"/>
  <path id="Path_00000152972540106224979550000007700844326380963235_" class="st0" d="M27.1 36.8h-7c-.5 0-.9.4-.9.9s.4.9.9.9h7c.5 0 .9-.4.9-.9 0-.6-.4-.9-.9-.9z"/>
  <path id="Path_00000091719021859921029520000012833706559945016209_" class="st1" d="M33 10.5C31.8 4.5 26.4 0 20.1 0 12.9 0 7 5.9 7 13.1v.9c-3.9.4-7 3.8-7 7.8 0 .7.1 1.4.4 2.2.1.5.6.7 1.1.6.5-.1.7-.6.6-1.1-.2-.6-.3-1.2-.3-1.7 0-3.4 2.7-6.1 6.1-6.1.3 0 .7-.1.9-.3.2-.2.2-.4.2-.7-.1-.6-.1-1.1-.1-1.6C8.9 6.8 14 1.7 20.3 1.7c5.6 0 10.5 4.2 11.2 9.8.1.4.6.7 1 .7 4.3 0 7.9 3.5 7.9 7.9 0 3.7-2.7 7-6.3 7.7-.5.1-.8.6-.7 1 .1.4.4.7.9.7h.2c4.5-.9 7.7-4.9 7.7-9.4-.2-5-4.1-9.2-9.2-9.6z"/>
  <path id="Path_00000077316940837710349680000001842226386940613823_" class="st0" d="M4.4 29.8c-.5 0-.9.4-.9.9s.4.9.9.9.9-.4.9-.9c-.1-.6-.4-.9-.9-.9z"/>
  <path id="Shape" class="st1" d="M28.9 26.2H2.6c-1.4 0-2.6 1.2-2.6 2.6v3.5c0 .7.3 1.3.7 1.7-.4.6-.7 1.2-.7 1.9v3.5C0 40.8 1.2 42 2.6 42h26.2c1.4 0 2.6-1.2 2.6-2.6v-3.5c0-.7-.3-1.3-.7-1.7.4-.5.7-1.1.7-1.7V29c.1-1.6-1.1-2.8-2.5-2.8zm.9 13.2c0 .5-.4.9-.9.9H2.6c-.5 0-.9-.4-.9-.9v-3.5c0-.5.4-.9.9-.9h26.2c.5 0 .9.4.9.9v3.5zm0-7c0 .5-.4.9-.9.9H2.6c-.5 0-.9-.4-.9-.9v-3.5c0-.5.4-.9.9-.9h26.2c.5 0 .9.4.9.9v3.5z"/>
  <path id="Path_00000076561262235301266060000018381304283565289114_" class="st0" d="M27.1 29.8h-7c-.5 0-.9.4-.9.9s.4.9.9.9h7c.5 0 .9-.4.9-.9 0-.6-.4-.9-.9-.9z"/>
</svg>