<svg version="1.1" id="Layer_1" xmlns="http://www.w3.org/2000/svg" xmlns:xlink="http://www.w3.org/1999/xlink" x="0" y="0" viewBox="0 0 42 42" xml:space="preserve">
  <style>
    .st0{clip-path:url(#SVGID_00000057863216226114506490000011375171556816547744_)}.st1{clip-path:url(#SVGID_00000147219350959610549530000014558081562529011899_);fill:#23769c}.st2{clip-path:url(#SVGID_00000021093213950409635120000000290500205133189558_)}.st3{clip-path:url(#SVGID_00000008870133050340978030000000465405606532898737_);fill:#fdc543}.st4{clip-path:url(#SVGID_00000065782760446318760370000009562034580294112919_)}.st5{clip-path:url(#SVGID_00000075867034893739710690000012385355180019036813_);fill:#fdc543}.st6{clip-path:url(#SVGID_00000053542657915787197730000004860211587314294658_)}.st7{clip-path:url(#SVGID_00000005957737931582561020000015998199951158572699_);fill:#fdc543}.st8{clip-path:url(#SVGID_00000113339550765259974450000017997474249731703981_)}.st9{clip-path:url(#SVGID_00000063635680582269029090000015874221244092413084_);fill:#7059a2}.st10{clip-path:url(#SVGID_00000033369535361741409460000001433889877204073394_)}.st11{clip-path:url(#SVGID_00000145764556448012678780000004515382834823872683_);fill:#7059a2}.st12{clip-path:url(#SVGID_00000000190786468338532420000014014296950630730147_)}.st13{clip-path:url(#SVGID_00000080907149401149421510000006636349290758280118_);fill:#7059a2}.st14{clip-path:url(#SVGID_00000121980729935861473700000007063188104734026121_)}.st15{clip-path:url(#SVGID_00000023261876514396611010000010462000935937801368_);fill:#7059a2}.st16{clip-path:url(#SVGID_00000028311752910252455270000012088859149978847143_)}.st17{clip-path:url(#SVGID_00000093886374145547908730000000968566740430772925_);fill:#fdc543}.st18{clip-path:url(#SVGID_00000181052675608534444490000016454389296637854098_)}.st19{clip-path:url(#SVGID_00000127753658815294852360000007994789168873742259_);fill:#fdc543}.st20{clip-path:url(#SVGID_00000043430475947628420950000002557273761455868817_)}.st21{clip-path:url(#SVGID_00000107582425042015365060000003295697451872931472_);fill:#fdc543}.st22{clip-path:url(#SVGID_00000181789291678411485910000005623664425877320363_)}.st23{clip-path:url(#SVGID_00000019665726918680766000000010237550746685654411_);fill:#fdc543}.st24{clip-path:url(#SVGID_00000012468506720792377730000000175722931915711620_)}.st25{clip-path:url(#SVGID_00000034808058953684632430000002805298756140886935_);fill:#fdc543}.st26{clip-path:url(#SVGID_00000178908429422389163740000008083878663348707726_)}.st27{clip-path:url(#SVGID_00000029007451099017247150000013073285185595797667_);fill:#fdc543}
  </style>
  <g id="Page-1">
    <defs>
      <path id="SVGID_1_" d="m36.8 33.6.7-2 1.9-5.6c.5-1.2.6-2.2.6-3.1 0-.3 0-.6-.1-.9.7 1.2 1 2.6 1 4.1 0 .4 0 .8-.1 1.2-.2 2.7-1.8 5-4 6.3zm-3.1-11.4c.5 0 1-.1 1-.1.5 0 .4-.7-.1-.7 0 0-1.4.1-2.3.1-.8 0-2.3-.1-2.3-.1-.5 0-.5.7 0 .7 0 0 .4.1.9.1l1.3 3.6-1.9 5.6-3.1-9.3c.5 0 1-.1 1-.1.5 0 .4-.7-.1-.7 0 0-1.4.1-2.3.1h-.5c1.5-2.3 4.2-3.8 7.1-3.8 2.2 0 4.3.9 5.8 2.2h-.1c-.8 0-1.4.7-1.4 1.5 0 .7.4 1.3.8 2 .3.6.7 1.3.7 2.4 0 .7-.2 1.7-.6 2.8l-.9 2.9-3-9.2zm-.1 12.5c-.4 0-.7.1-1.1.1-.8 0-1.6-.1-2.4-.4l.9-2.7 1.6-4.7 2.6 7.2s0 .1.1.1c-.5.2-1.1.3-1.7.4zM24 26.2c0-1.2.3-2.4.7-3.5l4.1 11.2c-2.9-1.4-4.8-4.3-4.8-7.7zm8.5-9.5c-5.2 0-9.5 4.3-9.5 9.5s4.3 9.5 9.5 9.5c.4 0 .8 0 1.2-.1 4.2-.5 7.6-3.9 8.2-8.1.1-.4.1-.9.1-1.3 0-5.2-4.3-9.5-9.5-9.5z"/>
    </defs>
    <clipPath id="SVGID_00000005977764341140534750000010998730679522773684_">
      <use xlink:href="#SVGID_1_" overflow="visible"/>
    </clipPath>
    <g clip-path="url(#SVGID_00000005977764341140534750000010998730679522773684_)">
      <defs>
        <path id="SVGID_00000008110597471799957510000003863646909883638931_" d="M-750-140.3H690v1100H-750z"/>
      </defs>
      <clipPath id="SVGID_00000108272297828027681720000000940281195937493666_">
        <use xlink:href="#SVGID_00000008110597471799957510000003863646909883638931_" overflow="visible"/>
      </clipPath>
      <path clip-path="url(#SVGID_00000108272297828027681720000000940281195937493666_)" fill="#23769c" d="M18 11.7h29v29H18z"/>
    </g>
    <defs>
      <circle id="SVGID_00000161596248224852636910000009485940667304307866_" cx="9.1" cy="4.2" r=".7"/>
    </defs>
    <clipPath id="SVGID_00000115486646256044659230000001381357872059760058_">
      <use xlink:href="#SVGID_00000161596248224852636910000009485940667304307866_" overflow="visible"/>
    </clipPath>
    <g clip-path="url(#SVGID_00000115486646256044659230000001381357872059760058_)">
      <defs>
        <path id="SVGID_00000027606932358755206560000010327472737231463058_" d="M-750-140.3H690v1100H-750z"/>
      </defs>
      <clipPath id="SVGID_00000108309146676811746800000016266935463387089594_">
        <use xlink:href="#SVGID_00000027606932358755206560000010327472737231463058_" overflow="visible"/>
      </clipPath>
      <path clip-path="url(#SVGID_00000108309146676811746800000016266935463387089594_)" fill="#fdc543" d="M3.4-1.5h11.4V9.9H3.4z"/>
    </g>
    <defs>
      <circle id="SVGID_00000049216620661461716170000013645423785409434770_" cx="6.3" cy="4.2" r=".7"/>
    </defs>
    <clipPath id="SVGID_00000176002146171242423620000004262407330084488584_">
      <use xlink:href="#SVGID_00000049216620661461716170000013645423785409434770_" overflow="visible"/>
    </clipPath>
    <g clip-path="url(#SVGID_00000176002146171242423620000004262407330084488584_)">
      <defs>
        <path id="SVGID_00000142158491287936127750000003566944618165680263_" d="M-750-140.3H690v1100H-750z"/>
      </defs>
      <clipPath id="SVGID_00000008837337806567404390000015109629858995204797_">
        <use xlink:href="#SVGID_00000142158491287936127750000003566944618165680263_" overflow="visible"/>
      </clipPath>
      <path clip-path="url(#SVGID_00000008837337806567404390000015109629858995204797_)" fill="#fdc543" d="M.6-1.5H12V9.9H.6z"/>
    </g>
    <defs>
      <circle id="SVGID_00000032611142830418705190000014566892626963048325_" cx="3.5" cy="4.2" r=".7"/>
    </defs>
    <clipPath id="SVGID_00000075868993376651421460000004507507393953538967_">
      <use xlink:href="#SVGID_00000032611142830418705190000014566892626963048325_" overflow="visible"/>
    </clipPath>
    <g clip-path="url(#SVGID_00000075868993376651421460000004507507393953538967_)">
      <defs>
        <path id="SVGID_00000114795237028684809650000004074096361268739760_" d="M-750-140.3H690v1100H-750z"/>
      </defs>
      <clipPath id="SVGID_00000083783750941967995710000015706764283718166705_">
        <use xlink:href="#SVGID_00000114795237028684809650000004074096361268739760_" overflow="visible"/>
      </clipPath>
      <path clip-path="url(#SVGID_00000083783750941967995710000015706764283718166705_)" fill="#fdc543" d="M-2.2-1.5H9.2V9.9H-2.2z"/>
    </g>
    <defs>
      <path id="SVGID_00000136404882056933334840000007533910853618698933_" d="M41.3 7.7H.7C.3 7.7 0 7.4 0 7c0-.4.3-.7.7-.7h40.6c.4 0 .7.3.7.7 0 .4-.3.7-.7.7z"/>
    </defs>
    <clipPath id="SVGID_00000134210994492514867150000014089298240603872412_">
      <use xlink:href="#SVGID_00000136404882056933334840000007533910853618698933_" overflow="visible"/>
    </clipPath>
    <g clip-path="url(#SVGID_00000134210994492514867150000014089298240603872412_)">
      <defs>
        <path id="SVGID_00000118358293022014700240000016424833182361379986_" d="M-750-140.3H690v1100H-750z"/>
      </defs>
      <clipPath id="SVGID_00000103962047661001762720000011524493399241500567_">
        <use xlink:href="#SVGID_00000118358293022014700240000016424833182361379986_" overflow="visible"/>
      </clipPath>
      <path clip-path="url(#SVGID_00000103962047661001762720000011524493399241500567_)" fill="#7059a2" d="M-5 1.3h52v11.4H-5z"/>
    </g>
    <defs>
      <path id="SVGID_00000171686940689767994930000010266049865283111818_" d="M.7 28.7c-.4 0-.7-.3-.7-.7V2.8C0 1.6.9.7 2.1.7h37.8c1.2 0 2.1.9 2.1 2.1v12.6c0 .4-.3.7-.7.7-.4 0-.7-.3-.7-.7V2.8c0-.4-.3-.7-.7-.7H2.1c-.4 0-.7.3-.7.7V28c0 .4-.3.7-.7.7z"/>
    </defs>
    <clipPath id="SVGID_00000140703005415218569830000003252841784500982405_">
      <use xlink:href="#SVGID_00000171686940689767994930000010266049865283111818_" overflow="visible"/>
    </clipPath>
    <g clip-path="url(#SVGID_00000140703005415218569830000003252841784500982405_)">
      <defs>
        <path id="SVGID_00000052813512164449098250000018081625773590333338_" d="M-750-140.3H690v1100H-750z"/>
      </defs>
      <clipPath id="SVGID_00000026135146180902468120000017628451213255413911_">
        <use xlink:href="#SVGID_00000052813512164449098250000018081625773590333338_" overflow="visible"/>
      </clipPath>
      <path clip-path="url(#SVGID_00000026135146180902468120000017628451213255413911_)" fill="#7059a2" d="M-5-4.3h52v38H-5z"/>
    </g>
    <defs>
      <path id="SVGID_00000037686758556114967320000005434395311426092475_" d="M29.4 41.3H13.3c-.4 0-.7-.3-.7-.7 0-.4.3-.7.7-.7h1.4c1.2 0 2.1-.9 2.1-2.1v-1.4c0-.4.3-.7.7-.7s.7.3.7.7v1.4c0 .8-.3 1.5-.7 2.1h7c-.4-.6-.7-1.3-.7-2.1v-4.2c0-.4.3-.7.7-.7s.7.3.7.7v4.2c0 1.2.9 2.1 2.1 2.1h2.1c.4 0 .7.3.7.7 0 .4-.3.7-.7.7z"/>
    </defs>
    <clipPath id="SVGID_00000096754423741525560910000000249575850829871292_">
      <use xlink:href="#SVGID_00000037686758556114967320000005434395311426092475_" overflow="visible"/>
    </clipPath>
    <g clip-path="url(#SVGID_00000096754423741525560910000000249575850829871292_)">
      <defs>
        <path id="SVGID_00000049210182128199976010000004186482908223678102_" d="M-750-140.3H690v1100H-750z"/>
      </defs>
      <clipPath id="SVGID_00000096777354312156685550000005504112114308396699_">
        <use xlink:href="#SVGID_00000049210182128199976010000004186482908223678102_" overflow="visible"/>
      </clipPath>
      <path clip-path="url(#SVGID_00000096777354312156685550000005504112114308396699_)" fill="#7059a2" d="M7.6 27.9h27.5v18.4H7.6z"/>
    </g>
    <defs>
      <path id="SVGID_00000096742692505142818930000007764296896805371268_" d="M24.5 34.3H2.1c-1.2 0-2.1-.9-2.1-2.1V28c0-.4.3-.7.7-.7h19.6c.4 0 .7.3.7.7s-.3.7-.7.7H1.4v3.5c0 .4.3.7.7.7h22.4c.4 0 .7.3.7.7 0 .4-.3.7-.7.7z"/>
    </defs>
    <clipPath id="SVGID_00000067222459728490028740000006206693846903530661_">
      <use xlink:href="#SVGID_00000096742692505142818930000007764296896805371268_" overflow="visible"/>
    </clipPath>
    <g clip-path="url(#SVGID_00000067222459728490028740000006206693846903530661_)">
      <defs>
        <path id="SVGID_00000165946008437999767980000007932806643080102840_" d="M-750-140.3H690v1100H-750z"/>
      </defs>
      <clipPath id="SVGID_00000178885149427524186640000014807098261209726619_">
        <use xlink:href="#SVGID_00000165946008437999767980000007932806643080102840_" overflow="visible"/>
      </clipPath>
      <path clip-path="url(#SVGID_00000178885149427524186640000014807098261209726619_)" fill="#7059a2" d="M-5 22.3h35.2v17H-5z"/>
    </g>
    <defs>
      <path id="SVGID_00000174585953979942950800000010183928054571020448_" d="M24.5 17.5h-1.4c-.4 0-.7-.3-.7-.7s.3-.7.7-.7h1.4c.4 0 .7.3.7.7s-.3.7-.7.7z"/>
    </defs>
    <clipPath id="SVGID_00000056429125863911983510000009740242505488736416_">
      <use xlink:href="#SVGID_00000174585953979942950800000010183928054571020448_" overflow="visible"/>
    </clipPath>
    <g clip-path="url(#SVGID_00000056429125863911983510000009740242505488736416_)">
      <defs>
        <path id="SVGID_00000170963745415340767570000004357765022140010640_" d="M-750-140.3H690v1100H-750z"/>
      </defs>
      <clipPath id="SVGID_00000098925300205642987470000005981050726665066900_">
        <use xlink:href="#SVGID_00000170963745415340767570000004357765022140010640_" overflow="visible"/>
      </clipPath>
      <path clip-path="url(#SVGID_00000098925300205642987470000005981050726665066900_)" fill="#fdc543" d="M17.4 11.1h12.8v11.4H17.4z"/>
    </g>
    <defs>
      <path id="SVGID_00000005965826531479655590000016878577452871745949_" d="M37.1 11.9h-14c-.4 0-.7-.3-.7-.7s.3-.7.7-.7h14c.4 0 .7.3.7.7s-.3.7-.7.7z"/>
    </defs>
    <clipPath id="SVGID_00000183249409419892802810000002749001898662870937_">
      <use xlink:href="#SVGID_00000005965826531479655590000016878577452871745949_" overflow="visible"/>
    </clipPath>
    <g clip-path="url(#SVGID_00000183249409419892802810000002749001898662870937_)">
      <defs>
        <path id="SVGID_00000067922142980221248790000018093230407435404706_" d="M-750-140.3H690v1100H-750z"/>
      </defs>
      <clipPath id="SVGID_00000102515769804946448630000006309239651666202800_">
        <use xlink:href="#SVGID_00000067922142980221248790000018093230407435404706_" overflow="visible"/>
      </clipPath>
      <path clip-path="url(#SVGID_00000102515769804946448630000006309239651666202800_)" fill="#fdc543" d="M17.4 5.5h25.4v11.4H17.4z"/>
    </g>
    <defs>
      <path id="SVGID_00000177462783290415058630000018288744146270605994_" d="M37.1 14.7h-14c-.4 0-.7-.3-.7-.7 0-.4.3-.7.7-.7h14c.4 0 .7.3.7.7 0 .4-.3.7-.7.7z"/>
    </defs>
    <clipPath id="SVGID_00000132080989410486121410000012756243794835757494_">
      <use xlink:href="#SVGID_00000177462783290415058630000018288744146270605994_" overflow="visible"/>
    </clipPath>
    <g clip-path="url(#SVGID_00000132080989410486121410000012756243794835757494_)">
      <defs>
        <path id="SVGID_00000144325260401909548090000004244772977137289868_" d="M-750-140.3H690v1100H-750z"/>
      </defs>
      <clipPath id="SVGID_00000079462884361843160240000006162147517294075812_">
        <use xlink:href="#SVGID_00000144325260401909548090000004244772977137289868_" overflow="visible"/>
      </clipPath>
      <path clip-path="url(#SVGID_00000079462884361843160240000006162147517294075812_)" fill="#fdc543" d="M17.4 8.3h25.4v11.4H17.4z"/>
    </g>
    <defs>
      <path id="SVGID_00000135649462368254176160000001323497790258165649_" d="M9.1 17.5H4.9c-.4 0-.7-.3-.7-.7s.3-.7.7-.7h4.2c.4 0 .7.3.7.7s-.3.7-.7.7z"/>
    </defs>
    <clipPath id="SVGID_00000088854437246851711480000005051472066014991263_">
      <use xlink:href="#SVGID_00000135649462368254176160000001323497790258165649_" overflow="visible"/>
    </clipPath>
    <g clip-path="url(#SVGID_00000088854437246851711480000005051472066014991263_)">
      <defs>
        <path id="SVGID_00000129927062799070841190000017236743529478905013_" d="M-750-140.3H690v1100H-750z"/>
      </defs>
      <clipPath id="SVGID_00000142145989682544793170000008079837780294708925_">
        <use xlink:href="#SVGID_00000129927062799070841190000017236743529478905013_" overflow="visible"/>
      </clipPath>
      <path clip-path="url(#SVGID_00000142145989682544793170000008079837780294708925_)" fill="#fdc543" d="M-.8 11.1h15.6v11.4H-.8z"/>
    </g>
    <defs>
      <path id="SVGID_00000163752524915281354270000006511530856812110505_" d="M18.9 11.9h-14c-.4 0-.7-.3-.7-.7s.3-.7.7-.7h14c.4 0 .7.3.7.7s-.3.7-.7.7z"/>
    </defs>
    <clipPath id="SVGID_00000059268269581711879120000004694297760968901508_">
      <use xlink:href="#SVGID_00000163752524915281354270000006511530856812110505_" overflow="visible"/>
    </clipPath>
    <g clip-path="url(#SVGID_00000059268269581711879120000004694297760968901508_)">
      <defs>
        <path id="SVGID_00000039096930187600967010000010125556414401102008_" d="M-750-140.3H690v1100H-750z"/>
      </defs>
      <clipPath id="SVGID_00000101799623142780770350000013644454005503928745_">
        <use xlink:href="#SVGID_00000039096930187600967010000010125556414401102008_" overflow="visible"/>
      </clipPath>
      <path clip-path="url(#SVGID_00000101799623142780770350000013644454005503928745_)" fill="#fdc543" d="M-.8 5.5h25.4v11.4H-.8z"/>
    </g>
    <defs>
      <path id="SVGID_00000143598965161436788440000009557106596215577529_" d="M18.9 14.7h-14c-.4 0-.7-.3-.7-.7 0-.4.3-.7.7-.7h14c.4 0 .7.3.7.7 0 .4-.3.7-.7.7z"/>
    </defs>
    <clipPath id="SVGID_00000128458152850749081260000017880770783833818770_">
      <use xlink:href="#SVGID_00000143598965161436788440000009557106596215577529_" overflow="visible"/>
    </clipPath>
    <g clip-path="url(#SVGID_00000128458152850749081260000017880770783833818770_)">
      <defs>
        <path id="SVGID_00000096037012857147250490000011051496012046090431_" d="M-750-140.3H690v1100H-750z"/>
      </defs>
      <clipPath id="SVGID_00000013156358021602610500000006070715134405903233_">
        <use xlink:href="#SVGID_00000096037012857147250490000011051496012046090431_" overflow="visible"/>
      </clipPath>
      <path clip-path="url(#SVGID_00000013156358021602610500000006070715134405903233_)" fill="#fdc543" d="M-.8 8.3h25.4v11.4H-.8z"/>
    </g>
  </g>
</svg>