<svg width="300" height="89" viewBox="0 0 300 89" xmlns="http://www.w3.org/2000/svg">
  <g fill-rule="nonzero" fill="none">
    <path d="M20.1 26.3c-1.8-1.6-4.5-2.4-8.1-2.4-2.3 0-4.2.4-5.8 1.1-1.6.7-2.7 1.5-3.5 2.5-.8 1-1.2 1.9-1.2 2.7 0 .3.1.5.2.7.2.2.4.3.7.3h5.1c.2 0 .3-.1.4-.3.3-.1.6-.4 1-.7.5-.4.9-.7 1.3-.9.4-.2.9-.3 1.5-.3 1.1 0 1.8.3 2.2.7.4.5.7 1.3.7 2.4v.5l-5.5.8c-2.9.5-5.2 1.3-6.8 2.6C.8 37.2 0 38.8 0 40.8c0 1.3.4 2.4 1.1 3.5.7 1.1 1.7 1.9 3 2.5 1.3.6 2.7.9 4.2.9 1.6 0 2.9-.3 4.1-.9 1.1-.6 2-1.3 2.7-2.2v1.5c0 .3.1.6.3.8.2.2.5.3.8.3h5.4c.3 0 .6-.1.8-.3.2-.2.3-.5.3-.8V32.8c0-2.7-.9-4.9-2.6-6.5m-5.2 11.2c0 1.6-.4 2.8-1.2 3.7-.8.9-1.9 1.3-3.1 1.3-.9 0-1.6-.2-2.1-.6-.6-.4-.9-1-.9-1.6 0-1.3 1.2-2.2 3.7-2.6l3.7-.6-.1.4Zm32-21.5h-5.7c-.3 0-.6.1-.8.3-.2.2-.3.5-.3.8v9.4c-1.6-1.7-3.7-2.6-6.4-2.6-2.8 0-5 .9-6.7 2.8-1.6 1.8-2.5 4.4-2.6 7.5v3.1c.1 3.3 1 5.9 2.6 7.7 1.6 1.8 3.9 2.7 6.7 2.7 3 0 5.2-1 6.8-2.9v1.4c0 .3.1.6.3.8.2.2.5.3.8.3h5.2c.3 0 .6-.1.8-.3.2-.2.3-.5.3-.8V17.1c0-.3-.1-.6-.3-.8-.2-.2-.4-.3-.7-.3m-6.8 21.3c-.1 1.2-.4 2.3-1 3.1-.6.8-1.6 1.2-2.8 1.2-1.3 0-2.3-.4-2.8-1.2-.6-.8-.9-1.9-1-3.2v-2.8c.1-1.4.4-2.5 1-3.2.5-.8 1.5-1.2 2.8-1.2 1.2 0 2.2.4 2.8 1.1.6.7 1 1.7 1 2.8.1.8.1 1.3.1 1.6 0 .4 0 1-.1 1.8m29.4-11c-1.8-1.6-4.5-2.4-8.1-2.4-2.3 0-4.2.4-5.8 1.1-1.6.7-2.7 1.5-3.5 2.5-.8 1-1.2 1.9-1.2 2.7 0 .3.1.5.2.7.2.2.4.3.7.3h5.1c.2 0 .3-.1.4-.3.3-.1.6-.4 1-.7.5-.4.9-.7 1.3-.9.4-.2.9-.3 1.5-.3 1.1 0 1.8.3 2.2.7.4.5.7 1.3.7 2.4v.5l-5.5.8c-2.9.5-5.2 1.3-6.8 2.6-1.7 1.2-2.5 2.9-2.5 4.9 0 1.3.4 2.4 1.1 3.5.7 1.1 1.7 1.9 3 2.5 1.3.6 2.7.9 4.2.9 1.6 0 2.9-.3 4.1-.9 1.1-.6 2-1.3 2.7-2.2v1.5c0 .3.1.6.3.8.2.2.5.3.8.3h5.4c.3 0 .6-.1.8-.3.2-.2.3-.5.3-.8V32.8c.3-2.7-.6-4.9-2.4-6.5m-5.2 11.2c0 1.6-.4 2.8-1.2 3.7-.8.9-1.9 1.3-3.1 1.3-.9 0-1.6-.2-2.1-.6-.6-.4-.9-1-.9-1.6 0-1.3 1.2-2.2 3.7-2.6l3.7-.6-.1.4ZM108 26.4c-1.5-1.6-3.5-2.4-5.9-2.4-1.4 0-2.8.4-4 1.1-1.3.7-2.2 1.6-2.9 2.7-1.2-2.5-3.4-3.8-6.6-3.8-1.4 0-2.7.3-3.8.9-1.1.6-2 1.3-2.7 2.2v-1.5c0-.3-.1-.6-.3-.8-.2-.2-.5-.3-.8-.3h-5.1c-.3 0-.6.1-.8.3-.2.2-.3.5-.3.8v20.7c0 .3.1.6.3.8.2.2.5.3.8.3h5.5c.3 0 .6-.1.8-.3.2-.2.3-.5.3-.8V33.9c0-1.3.3-2.3.9-2.9.6-.6 1.3-.9 2.2-.9.9 0 1.7.3 2.3.9.6.6.9 1.6.9 3v12.2c0 .3.1.6.3.8.2.2.5.3.8.3h5.4c.3 0 .6-.1.8-.3.2-.2.3-.5.3-.8V34c0-1.3.3-2.3.9-3 .6-.6 1.3-.9 2.2-.9 1 0 1.7.3 2.3.9.6.6.9 1.6.9 3v12.2c0 .3.1.6.3.8.2.2.5.3.8.3h2.1c.4 0 .7-.1.9-.4l2.9-2.9c.3-.3.5-.8.5-1.3v-9c0-3.3-.7-5.7-2.2-7.3m127.8.1c-2-1.7-4.9-2.6-8.4-2.6s-6.4.9-8.4 2.6c-2 1.7-3.1 4.2-3.3 7.3v4c.2 3.2 1.3 5.6 3.2 7.3 2 1.7 4.8 2.6 8.5 2.6s6.5-.9 8.5-2.6c2-1.7 3.1-4.2 3.2-7.3.1-.8.1-1.4.1-2 0-.6 0-1.2-.1-2-.1-3.1-1.2-5.5-3.3-7.3m-4.7 11.1c-.1 1.6-.4 2.7-1 3.5-.6.7-1.5 1.1-2.7 1.1-1.2 0-2.1-.4-2.7-1.1-.6-.7-.9-1.9-1-3.5V34c.1-1.5.4-2.7 1-3.4.6-.8 1.5-1.1 2.7-1.1 1.2 0 2.1.4 2.7 1.1.6.8.9 1.9 1 3.4v3.6m-25.2-13.7c-1.4 0-2.8.4-4 1.1-1.3.7-2.2 1.6-2.9 2.7-1.2-2.5-3.4-3.8-6.6-3.8-1.4 0-2.7.3-3.8.9-1.1.6-2 1.3-2.7 2.2v-1.5c0-.3-.1-.6-.3-.8-.2-.2-.5-.3-.8-.3h-5.1c-.3 0-.5.1-.8.3-.3.2-.3.5-.3.8v17.2c0 .5.2.9.5 1.3l2.9 2.9c.3.3.6.4.9.4h2.2c.3 0 .6-.1.8-.3.2-.2.3-.5.3-.8V33.9c0-1.3.3-2.3.9-2.9.6-.6 1.3-.9 2.2-.9.9 0 1.7.3 2.3.9.6.6.9 1.6.9 3v12.2c0 .3.1.6.3.8.2.2.5.3.8.3h5.4c.3 0 .6-.1.8-.3.2-.2.3-.5.3-.8V34c0-1.3.3-2.3.9-3 .6-.6 1.3-.9 2.2-.9 1 0 1.7.3 2.3.9.6.6.9 1.6.9 3v12.2c0 .3.1.6.3.8.2.2.5.3.8.3h5.4c.3 0 .6-.1.8-.3.2-.2.3-.5.3-.8V33.7c0-3.2-.8-5.7-2.3-7.3-1.5-1.7-3.4-2.5-5.8-2.5m67.4-7.9h-5.5c-.3 0-.6.1-.8.3-.2.2-.3.5-.3.8v29.1c0 .3.1.6.3.8.2.2.5.3.8.3h5.5c.3 0 .6-.1.8-.3.2-.2.3-.5.3-.8V17.1c0-.3-.1-.6-.3-.8-.2-.2-.5-.3-.8-.3m-10.1 8.4h-5.8c-.3 0-.6.1-.8.3-.2.2-.3.5-.3.8v12c0 1.3-.3 2.3-1 3-.7.7-1.6 1.1-2.8 1.1-2.4 0-3.7-1.4-3.7-4.1v-12c0-.3-.1-.6-.3-.8-.2-.2-.5-.3-.8-.3h-5.9c-.3 0-.6.1-.8.3-.2.2-.3.5-.3.8v12.3c0 3.2.8 5.6 2.4 7.4 1.6 1.7 3.7 2.6 6.2 2.6 3.3 0 5.8-1.1 7.3-3.2v1.7c0 .3.1.6.3.8.2.2.5.3.8.3h5.4c.3 0 .6-.1.8-.3.2-.2.3-.5.3-.8V25.5c0-.3-.1-.6-.3-.8-.1-.2-.4-.3-.7-.3m36.5-8.1c-.2-.2-.5-.3-.8-.3h-5.7c-.3 0-.5.1-.8.3-.2.2-.3.5-.3.8v9.4c-1.6-1.7-3.7-2.6-6.4-2.6-2.8 0-5 .9-6.7 2.8-1.6 1.8-2.5 4.4-2.6 7.5v3.1c.1 3.3 1 5.9 2.6 7.7 1.6 1.8 3.9 2.7 6.7 2.7 3 0 5.2-1 6.8-2.9v1.4c0 .3.1.6.3.8.2.2.5.3.8.3h5.2c.3 0 .6-.1.8-.3.2-.2.3-.5.3-.8V17.1c.1-.3 0-.6-.2-.8m-7.6 21c-.1 1.2-.4 2.3-1 3.1-.6.8-1.6 1.2-2.8 1.2-1.3 0-2.3-.4-2.8-1.2-.6-.8-.9-1.9-1-3.2v-2.8c.1-1.4.4-2.5 1-3.2.6-.8 1.5-1.2 2.8-1.2 1.2 0 2.2.4 2.8 1.1.6.7 1 1.7 1 2.8.1.8.1 1.3.1 1.6 0 .4-.1 1-.1 1.8" fill="#F8FAFC"/>
    <path d="M188.8 58.9c0 1.2-.3 2.1-1 2.7-.7.6-1.6.9-2.9.9h-2v-7.2h2.3c1.2 0 2.1.3 2.7.9.6.7.9 1.5.9 2.7m-1.6 0c0-1.5-.7-2.3-2-2.3h-.8v4.7h.7c1.4 0 2.1-.8 2.1-2.4m10.6 3.6h-4.1v-7.2h4.1v1.2h-2.6v1.6h2.4v1.2h-2.4v1.9h2.6v1.3Zm9.4-7.2h1.5l-2.4 7.2h-1.7l-2.4-7.2h1.5l1.4 4.3c.1.3.2.5.2.9.1.3.1.6.2.7 0-.3.2-.8.4-1.6l1.3-4.3Zm10.2 7.2h-4.1v-7.2h4.1v1.2h-2.6v1.6h2.4v1.2h-2.4v1.9h2.6v1.3Zm5 0v-7.2h1.5v5.9h2.9v1.3h-4.4Zm15.5-3.6c0 1.2-.3 2.1-.9 2.7-.6.6-1.4 1-2.5 1s-1.9-.3-2.5-1c-.6-.6-.9-1.6-.9-2.8 0-1.2.3-2.1.9-2.7.6-.6 1.4-.9 2.5-.9s1.9.3 2.5 1c.6.6.9 1.5.9 2.7m-5.2 0c0 .8.1 1.4.5 1.8.3.4.8.6 1.4.6 1.2 0 1.8-.8 1.8-2.4 0-1.6-.6-2.4-1.8-2.4-.6 0-1.1.2-1.4.6-.4.4-.5 1-.5 1.8m15.1-1.3c0 .8-.2 1.4-.7 1.8-.5.4-1.2.6-2.1.6h-.7v2.6h-1.5v-7.2h2.3c.9 0 1.5.2 2 .6.5.3.7.8.7 1.6m-3.4 1.1h.5c.5 0 .8-.1 1.1-.3.2-.2.3-.5.3-.8 0-.4-.1-.6-.3-.8-.2-.2-.5-.3-.9-.3h-.7v2.2Zm12.3 3.8h-4.1v-7.2h4.1v1.2h-2.6v1.6h2.4v1.2h-2.4v1.9h2.6v1.3Zm6.5-2.7v2.8h-1.5v-7.2h2.1c1 0 1.7.2 2.2.5.5.4.7.9.7 1.6 0 .4-.1.8-.4 1.1-.2.3-.6.6-1 .8 1.1 1.6 1.8 2.7 2.1 3.1h-1.7l-1.7-2.8-.8.1Zm0-1.3h.5c.5 0 .8-.1 1.1-.2.2-.2.3-.4.3-.8 0-.3-.1-.6-.4-.7-.3-.1-.6-.2-1.1-.2h-.5l.1 1.9Zm-239 4h-1.5v-7.2h4.1v1.2h-2.6v1.9h2.4v1.2h-2.4v2.9Zm8.9-2.7v2.8h-1.5v-7.2h2.1c1 0 1.7.2 2.2.5.5.4.7.9.7 1.6 0 .4-.1.8-.3 1.1-.2.3-.6.6-1 .8 1.1 1.6 1.8 2.7 2.1 3.1h-1.7L34 59.7l-.9.1Zm0-1.3h.5c.5 0 .8-.1 1.1-.2.2-.2.3-.4.3-.8 0-.3-.1-.6-.4-.7-.2-.1-.6-.2-1.1-.2H33v1.9h.1Zm12.9 4h-4.1v-7.2H46v1.2h-2.6v1.6h2.4v1.2h-2.4v1.9H46v1.3Zm9.1 0H51v-7.2h4.1v1.2h-2.6v1.6h2.4v1.2h-2.4v1.9h2.6v1.3Zm5 0v-7.2h1.5v5.9h2.9v1.3h-4.4Zm14 0-.5-1.7H71l-.5 1.7h-1.6l2.5-7.2h1.9l2.5 7.2h-1.7Zm-.9-3c-.5-1.6-.8-2.4-.8-2.6-.1-.2-.1-.4-.1-.5-.1.4-.4 1.5-.9 3.1h1.8Zm13.4 3h-1.9l-3.1-5.4c.1 1 .1 1.6.1 2.1v3.4h-1.4v-7.2h1.9l3.1 5.4c0-.9-.1-1.6-.1-2v-3.4h1.4v7.1Zm8.3-6c-.6 0-1 .2-1.3.6-.3.4-.5 1-.5 1.8 0 1.6.6 2.4 1.8 2.4.5 0 1.1-.1 1.8-.4v1.3c-.6.2-1.2.4-2 .4-1 0-1.8-.3-2.4-.9-.6-.6-.8-1.5-.8-2.7 0-.7.1-1.4.4-2 .3-.6.7-1 1.2-1.3.5-.3 1.1-.4 1.8-.4s1.4.2 2.1.5l-.4 1.2c-.3-.1-.5-.2-.8-.3-.3-.2-.6-.2-.9-.2m11 6h-4.1v-7.2h4.1v1.2h-2.6v1.6h2.4v1.2h-2.4v1.9h2.6v1.3Z" fill="#CBD5E1"/>
    <path d="M157.4 49c-.7-.7-1.8-.3-2 .6-1.1 5.1-5.6 9-11 9s-10-3.9-11-9c-.2-.9-1.3-1.2-2-.6l-5.6 5.5c-.2.2-.4.5-.4.9v14.2c0 .3.1.6.4.9l5.4 5.2c.8.7 2 .2 2-.9v-9.9c0-.9 1-1.5 1.8-1 1.5.8 3 1.5 4.7 1.9.5.1.9.6.9 1.2v17.8c0 .3.1.6.4.9l2.7 2.6c.5.5 1.2.5 1.7 0l2.7-2.6c.2-.2.4-.5.4-.9v-18c0-.5.4-1 .9-1.2 1.7-.4 3.3-1.1 4.7-1.9.8-.5 1.8.1 1.8 1v9.9c0 1.1 1.3 1.6 2 .9l5.4-5.2c.2-.2.4-.5.4-.9V55.3c0-.3-.1-.6-.4-.9l-5.9-5.4Z" fill="#FFC641"/>
    <path d="M149.6 32.5 145 37c-.5.5-1.2.4-1.7 0l-4.3-4.5c-.2-.2-.4-.6-.3-.9.2-5.5 3.4-8.9 4.9-10.2.5-.4 1.1-.4 1.6 0 1.5 1.3 4.7 4.7 4.9 10.2-.1.3-.2.6-.5.9" fill="#F8FAFC"/>
    <path d="M164.8 39.3c-.9-.9-1.4-2.1-1.4-3.4 0-20.6-16-32.9-16.7-33.4L145 1.2c-.4-.3-1-.3-1.4 0L142 2.5c-.7.5-16.7 12.8-16.7 33.4 0 1.3-.5 2.5-1.4 3.4l-5.9 5.9c-.8.8-.2 2 .8 2h5.6c.6 0 1.2-.2 1.7-.7l6.1-6c.6-.6.9-1.3.9-2.1v-2.5c0-6.9 2.3-13.6 6.7-19.8.6-.9 1.2-1.7 1.8-2.4 1.4-1.7 4.1-1.7 5.5 0 .6.7 1.2 1.5 1.8 2.4 4.4 6.2 6.7 12.9 6.7 19.8v2.5c0 .8.3 1.6.9 2.1l6.1 6c.4.4 1 .7 1.7.7h5.6c1.1 0 1.6-1.3.8-2l-5.9-5.9Z" fill="#7159A6"/>
  </g>
</svg>