<svg width="418" height="700" viewBox="0 0 418 700" fill="none" xmlns="http://www.w3.org/2000/svg">
  <path d="M310.468 383.324c-5.464-5.588-14.051-2.395-15.613 4.789-8.587 40.707-43.716 71.836-85.871 71.836-42.154 0-78.064-31.129-85.87-71.836-1.562-7.184-10.149-9.578-15.613-4.789l-43.716 43.899c-1.562 1.597-3.123 3.991-3.123 7.184v113.341c0 2.394.78 4.789 3.123 7.183l42.154 41.506c6.246 5.587 15.613 1.596 15.613-7.184v-79.019c0-7.184 7.807-11.973 14.052-7.982 11.71 6.385 23.419 11.973 36.69 15.165 3.903.798 7.026 4.789 7.026 9.578v142.076c0 2.394.781 4.789 3.123 7.183l21.077 20.753c3.903 3.991 9.368 3.991 13.271 0l21.077-20.753c1.562-1.596 3.123-3.991 3.123-7.183V525.399c0-3.991 3.122-7.982 7.026-9.578 13.271-3.193 25.761-8.78 36.69-15.165 6.245-3.991 14.052.798 14.052 7.981v79.02c0 8.78 10.148 12.77 15.613 7.183l42.154-41.505c1.562-1.596 3.123-3.991 3.123-7.183V433.609c0-2.395-.781-4.789-3.123-7.184l-46.058-43.101Z" fill="#FFC641"/>
  <path d="m249.578 251.625-35.91 35.918c-3.903 3.99-9.368 3.192-13.271 0l-33.568-35.918c-1.561-1.597-3.122-4.789-2.342-7.184 1.562-43.9 26.542-71.037 38.252-81.414 3.903-3.192 8.587-3.192 12.49 0 11.71 10.377 36.691 37.514 38.252 81.414-.781 2.395-1.561 4.789-3.903 7.184Z" fill="#242A38"/>
  <path d="M368.236 305.901c-7.026-7.184-10.929-16.762-10.929-27.138 0-164.424-124.904-262.6-130.368-266.59L213.668 1.795c-3.123-2.395-7.806-2.395-10.929 0l-12.49 10.376C184.784 16.163 59.881 114.34 59.881 278.763c0 10.376-3.903 19.954-10.929 27.138L2.894 352.993c-6.245 6.386-1.561 15.964 6.245 15.964h43.716c4.684 0 9.368-1.597 13.271-5.588l47.619-47.89c4.684-4.789 7.026-10.376 7.026-16.762v-19.954c0-55.074 17.955-108.552 52.304-158.039 4.683-7.184 9.367-13.569 14.051-19.156 10.929-13.57 32.007-13.57 42.936 0 4.684 5.587 9.367 11.972 14.051 19.156 34.349 49.487 52.303 102.965 52.303 158.039v19.954c0 6.386 2.342 12.771 7.026 16.762l47.62 47.89c3.122 3.193 7.806 5.588 13.27 5.588h43.717c8.587 0 12.49-10.377 6.245-15.964l-46.058-47.092Z" fill="#7159A6"/>
</svg>