<svg id="Layer_1" xmlns="http://www.w3.org/2000/svg" viewBox="0 0 587.44 429.66">
  <defs>
    <style>
      .cls-1{fill:#f87171}.cls-1,.cls-10,.cls-12,.cls-13,.cls-16,.cls-17,.cls-18,.cls-2,.cls-7{stroke-width:0}.cls-2{fill:#624354}.cls-7{fill:#cbd5e1}.cls-10{fill:#e0f2fe}.cls-12{fill:#dc2626}.cls-13{fill:#a9939c}.cls-16{fill:#fff}.cls-17{fill:#e4f1fe}.cls-18{fill:#ffbd45}
    </style>
  </defs>
  <path class="cls-16" d="M575.32 276.14c-4.7-9.23-14.29-15.55-25.36-15.55-5.19 0-10.28 1.41-14.72 4.1-3.11-17.01-18-29.9-35.9-29.9-14.58 0-27.16 8.55-33.01 20.91-1.87-.45-3.78-.68-5.7-.68-12.35 0-22.55 9.2-24.12 21.12h138.81Zm-452.68 29.8c-4.16-8.15-12.62-13.74-22.4-13.74-4.58 0-9.08 1.25-13 3.62-2.75-15.02-15.9-26.42-31.72-26.42-12.88 0-24 7.55-29.17 18.47-1.65-.4-3.34-.6-5.04-.6-10.91 0-19.92 8.13-21.31 18.66h122.64Z"/>
  <path class="cls-13" d="M449.37 186.46H156.96c-9.79 0-17.73 7.94-17.73 17.73v200.13h327.88V204.19c0-9.79-7.94-17.73-17.73-17.73Zm-1.81 198.32H158.77V206h288.8v178.78Z"/>
  <path d="M163.32 186.46h-6.36c-9.79 0-17.73 7.94-17.73 17.73v119.54h2.97V204.19c0-9.79 7.99-17.73 21.12-17.73Zm279.99 0h6.36c9.79 0 17.73 7.94 17.73 17.73v119.54h-2.97V204.19c0-9.79-7.99-17.73-21.12-17.73Z" fill="#cbbec3" stroke-width="0"/>
  <path d="M303.17 206h-144.4v178.78h288.8V206h-144.4Z" fill="#5e3e4f" stroke-width="0"/>
  <path class="cls-2" d="M306.57 192.73h-6.81c-1.88 0-3.4 1.52-3.4 3.4v.07c0 1.88 1.52 3.4 3.4 3.4h6.81c1.88 0 3.4-1.52 3.4-3.4v-.07c0-1.88-1.52-3.4-3.4-3.4Z"/>
  <path class="cls-18" d="M162.13 209.37H444.2v172.05H162.13V209.37Z"/>
  <path class="cls-17" d="m294.84 295.09 17.9-112.49h59.29l17.91 100.41v23.8l-42.18 7.74-52.92-19.45Z"/>
  <path class="cls-16" d="M410.64 259.63c.43.72.93 1.38 1.48 1.98l-2.18 3.88 6.27 3.52 2.18-3.88c1.6.33 3.28.31 4.91-.06l2.27 3.82 6.18-3.67-2.27-3.82c1.1-1.24 1.91-2.7 2.4-4.28l4.45-.05-.09-7.19-4.44.05c-.53-1.57-1.38-3.01-2.51-4.22l2.17-3.88-6.27-3.52-2.18 3.88c-1.62-.33-3.3-.31-4.91.06l-2.27-3.82-6.18 3.67 2.27 3.82c-1.1 1.24-1.91 2.7-2.4 4.28l-4.45.05.09 7.19 4.45-.05c.26.77.6 1.52 1.03 2.24Zm7.33-10.57a5.343 5.343 0 0 1 7.36 1.74c1.55 2.51.78 5.81-1.74 7.36-.06.03-.11.07-.17.1a5.363 5.363 0 0 1-7.3-2 5.36 5.36 0 0 1 1.84-7.2Z"/>
  <path class="cls-16" d="M396.45 235.17c-.21.44-.38.91-.49 1.38l-2.64.2.33 4.26 2.64-.2c.37.91.94 1.73 1.65 2.41l-1.14 2.39 3.86 1.85 1.14-2.39c.98.13 1.97.06 2.91-.23l1.49 2.18 3.53-2.42-1.49-2.18a7.04 7.04 0 0 0 1.26-2.63l2.64-.2-.33-4.26-2.64.21c-.37-.91-.94-1.73-1.65-2.41l1.14-2.38-3.86-1.85-1.14 2.38c-.98-.13-1.97-.05-2.91.23l-1.49-2.18-3.53 2.42 1.49 2.18c-.3.39-.56.81-.77 1.25Zm7.65.13c1.6.74 2.29 2.63 1.55 4.22a3.181 3.181 0 0 1-4.3 1.51 3.175 3.175 0 0 1-1.44-4.26c.76-1.55 2.62-2.2 4.19-1.48Zm-18.31 108.93h-83.9l17.4-163.29h46.2l20.31 163.29Z"/>
  <path class="cls-17" d="M304.47 276.62c-5.15 0-10.15 1.72-14.21 4.89-4.96-8.28-14.01-13.83-24.37-13.83-15.68 0-28.39 12.71-28.39 28.39 0 1.88.19 3.75.55 5.59-1.99.3-3.93.88-5.75 1.73-5.19-4.95-12.21-7.99-19.94-7.99-15.97 0-28.91 12.94-28.91 28.91s12.94 28.91 28.91 28.91c8.8 0 16.67-3.93 21.98-10.14 2.23.77 4.58 1.16 6.93 1.15 11.34 0 20.61-8.82 21.35-19.97 1.07.12 2.16.19 3.27.19 8.43 0 16-3.68 21.2-9.52 4.23 4.83 10.45 7.89 17.38 7.89 12.76 0 23.1-10.34 23.1-23.1s-10.34-23.1-23.1-23.1Z"/>
  <path class="cls-16" d="M259.37 244.41c4.05 0 7.33-3.28 7.33-7.33s-3.28-7.33-7.33-7.33-7.33 3.28-7.33 7.33 3.28 7.33 7.33 7.33Z"/>
  <path class="cls-16" d="M241.76 237.08c0-9.71 7.9-17.61 17.61-17.61s17.61 7.9 17.61 17.61-7.9 17.61-17.61 17.61-17.61-7.9-17.61-17.61Zm3.13 0c0 7.98 6.49 14.48 14.48 14.48s14.48-6.49 14.48-14.48-6.49-14.48-14.48-14.48-14.48 6.49-14.48 14.48Z"/>
  <path d="M243.89 48.39v-.32c8.88 0 16.07-7.19 16.07-16.07h.33c0 8.87 7.19 16.07 16.07 16.07v.32c-8.87 0-16.07 7.19-16.07 16.07h-.33c0-8.87-7.19-16.07-16.07-16.07Zm186.55 39.6v-.32c8.88 0 16.07-7.19 16.07-16.07h.33c0 8.87 7.19 16.07 16.07 16.07v.32c-8.87 0-16.07 7.19-16.07 16.07h-.33c0-8.87-7.19-16.07-16.07-16.07Zm-274.73-4.07v-.23c6.4 0 11.59-5.19 11.59-11.59h.23c0 6.4 5.19 11.59 11.59 11.59v.23c-6.4 0-11.59 5.19-11.59 11.59h-.23c0-6.4-5.19-11.59-11.59-11.59Zm408.32-71.18v-.23c6.4 0 11.59-5.19 11.59-11.59h.23c0 6.4 5.19 11.59 11.59 11.59v.23c-6.4 0-11.59 5.19-11.59 11.59h-.23c0-6.4-5.19-11.59-11.59-11.59Zm-72.49 150.39v-.23c6.4 0 11.59-5.19 11.59-11.59h.23c0 6.4 5.19 11.59 11.59 11.59v.23c-6.4 0-11.59 5.19-11.59 11.59h-.23c0-6.4-5.19-11.59-11.59-11.59ZM118.92 15.88v-.24c6.4 0 11.59-5.19 11.59-11.59h.23c0 6.4 5.19 11.59 11.59 11.59v.23c-6.4 0-11.59 5.19-11.59 11.59h-.23c0-6.4-5.19-11.59-11.59-11.59Zm272.38.86v-.11c3.05 0 5.52-2.47 5.52-5.52s.11 0 .11 0c0 3.05 2.47 5.52 5.52 5.52v.11c-3.05 0-5.52 2.47-5.52 5.52h-.11c0-3.05-2.47-5.52-5.52-5.52ZM230.73 138.69v-.11c3.05 0 5.52-2.47 5.52-5.52h.11c0 3.05 2.47 5.52 5.52 5.52v.11c-3.05 0-5.52 2.47-5.52 5.52s-.11 0-.11 0c0-3.05-2.47-5.52-5.52-5.52ZM44.69 81.27v-.11c3.05 0 5.52-2.47 5.52-5.52s.11 0 .11 0c0 3.05 2.47 5.52 5.52 5.52v.11c-3.05 0-5.52 2.47-5.52 5.52h-.11c0-3.05-2.47-5.52-5.52-5.52Zm524.5 59.96v-.11c3.05 0 5.52-2.47 5.52-5.52h.11c0 3.05 2.47 5.52 5.52 5.52v.11c-3.05 0-5.52 2.47-5.52 5.52s-.11 0-.11 0c0-3.05-2.47-5.52-5.52-5.52Zm-55.92-49.7v-.23c6.4 0 11.59-5.19 11.59-11.59h.23c0 6.4 5.19 11.59 11.59 11.59v.23c-6.4 0-11.59 5.19-11.59 11.59h-.23c0-6.4-5.19-11.59-11.59-11.59Z" style="isolation:isolate" opacity=".5" fill="#ffc641" stroke-width="0"/>
  <path class="cls-16" d="M188.25 238.83c-6.27 0-11.45-5.1-11.55-11.37-.1-6.37 5-11.63 11.37-11.73h.19c6.27 0 11.45 5.1 11.54 11.37.1 6.37-5 11.63-11.37 11.73h-.19Zm0-19.55h-.13c-4.41.07-7.94 3.72-7.87 8.13.07 4.34 3.66 7.87 8 7.87h.13a7.95 7.95 0 0 0 5.62-2.43 7.943 7.943 0 0 0 2.25-5.69c-.07-4.34-3.66-7.88-8-7.88Z"/>
  <path class="cls-16" d="M179.63 246.74c-3.87 0-7.07-3.15-7.13-7.02-.03-1.89.69-3.72 2.01-5.08a7.12 7.12 0 0 1 5.01-2.17h.12c3.87 0 7.07 3.15 7.13 7.02.06 3.93-3.09 7.19-7.02 7.25h-.12Zm0-10.73h-.06c-.95.01-1.86.41-2.52 1.09-.66.68-1.03 1.6-1.01 2.55a3.6 3.6 0 0 0 3.59 3.53h.06a3.585 3.585 0 0 0 3.53-3.64 3.608 3.608 0 0 0-3.59-3.53Zm34.65 47.74c-3.87 0-7.07-3.15-7.13-7.02a7.09 7.09 0 0 1 2.01-5.08 7.12 7.12 0 0 1 5.01-2.17h.12c3.87 0 7.07 3.15 7.13 7.02.06 3.93-3.09 7.19-7.02 7.25h-.12Zm0-10.73h-.06c-.95.01-1.86.41-2.52 1.09-.66.68-1.03 1.6-1.01 2.55a3.6 3.6 0 0 0 3.59 3.53h.06a3.594 3.594 0 0 0 3.53-3.65 3.608 3.608 0 0 0-3.59-3.53Zm215.42-42.69c-3.87 0-7.07-3.15-7.13-7.02a7.09 7.09 0 0 1 2.01-5.08 7.079 7.079 0 0 1 5.01-2.17h.11c3.87 0 7.07 3.15 7.14 7.02.06 3.93-3.09 7.19-7.02 7.25h-.11Zm0-10.73h-.06c-.95.01-1.86.41-2.52 1.09-.66.68-1.03 1.6-1.01 2.55a3.6 3.6 0 0 0 3.59 3.53h.06a3.588 3.588 0 0 0 3.53-3.65 3.605 3.605 0 0 0-3.58-3.53Zm-242.11 57.97c-1.47 0-2.66-1.19-2.66-2.66 0-.42.1-.83.29-1.2.33-.66.67-1.32 1.01-1.95a2.665 2.665 0 0 1 3.61-1.06c1.27.7 1.75 2.28 1.08 3.56-.32.61-.64 1.22-.95 1.83a2.66 2.66 0 0 1-2.38 1.47Zm6.15-10.31a2.667 2.667 0 0 1-2.17-4.21 65.56 65.56 0 0 1 2.48-3.28 2.674 2.674 0 0 1 3.75-.36 2.66 2.66 0 0 1 .4 3.69c-.79.99-1.55 2-2.29 3.03-.5.7-1.31 1.12-2.17 1.12Zm9.15-10.35c-1.47 0-2.66-1.19-2.66-2.66 0-.75.32-1.47.87-1.97 1.02-.92 2.07-1.81 3.15-2.67a2.664 2.664 0 0 1 3.31 4.17c-.98.78-1.95 1.6-2.88 2.44-.49.44-1.13.69-1.79.69Zm11.23-8.04c-1.47 0-2.66-1.19-2.66-2.66 0-.97.52-1.86 1.37-2.33 1.2-.67 2.42-1.3 3.66-1.89 1.33-.63 2.92-.07 3.55 1.25.63 1.33.07 2.92-1.25 3.55-1.14.54-2.26 1.12-3.37 1.74-.41.23-.85.34-1.29.34Zm12.71-5.41a2.659 2.659 0 0 1-.79-5.2c1.3-.41 2.61-.78 3.93-1.12 1.44-.32 2.86.59 3.18 2.02.3 1.37-.51 2.74-1.85 3.13a68 68 0 0 0-3.67 1.05c-.26.08-.53.12-.8.12Zm13.51-2.99c-1.47 0-2.66-1.21-2.65-2.68 0-1.32.98-2.43 2.28-2.62.71-.1 1.44-.19 2.17-.28a2.664 2.664 0 0 1 .62 5.29c-.69.08-1.38.17-2.06.26-.12.02-.25.03-.37.03Z"/>
  <path class="cls-16" d="M180.22 269.16c-5.73 0-10.38 4.65-10.38 10.38s10.38 17.86 10.38 17.86 10.38-12.13 10.38-17.86-4.65-10.38-10.38-10.38Zm0 14.95c-2.52.04-4.6-1.98-4.64-4.5a4.576 4.576 0 0 1 4.5-4.64h.14a4.57 4.57 0 0 1 4.5 4.64 4.573 4.573 0 0 1-4.5 4.5Zm0 20.17c1.78.01 3.24-1.42 3.25-3.21a3.229 3.229 0 0 0-3.21-3.25h-.05a3.235 3.235 0 0 0-3.21 3.25 3.233 3.233 0 0 0 3.21 3.21Z"/>
  <path class="cls-17" d="M409.98 339.52c0 .2-.02.4-.02.6 0 6.67 2.94 12.64 7.59 16.72-12.18 9.22-20.05 23.83-20.05 40.28 0 2.45.18 4.86.51 7.21h99.93c.34-2.36.52-4.76.52-7.21 0-26.06-19.75-47.51-45.1-50.2.71-2.2 1.07-4.5 1.07-6.8 0-10.62-7.45-19.5-17.4-21.7a34.56 34.56 0 0 0 2.56-13.05c0-19.06-15.45-34.5-34.51-34.5s-34.5 15.45-34.5 34.5 15.45 34.5 34.5 34.5c1.66 0 3.3-.12 4.9-.35Z"/>
  <path class="cls-16" d="M467.81 404.33c.05-.88.08-1.76.08-2.65 0-24.2-18.48-44.08-42.09-46.32.44-2.51.67-5.08.67-7.72 0-24.7-20.02-44.73-44.73-44.73-13.07 0-24.83 5.61-33.01 14.54-6.24-14.55-20.7-24.75-37.54-24.75-19.62 0-36.01 13.85-39.93 32.31-4.34-1.52-8.9-2.29-13.5-2.29-4.77 0-9.35.82-13.6 2.33-8.25-10.21-20.88-16.73-35.02-16.73-11.72 0-22.4 4.48-30.41 11.83-8.99-4.86-19.29-7.62-30.22-7.62-35.15 0-63.64 28.49-63.64 63.64 0 10.11 3.66 21.34 10.13 28.17h372.82Z"/>
  <path class="cls-17" d="M160.56 340.94c-30.86 0-55.87 25.02-55.87 55.88 0 4.19.46 8.27 1.34 12.19h14.83c-.39-2.69-.59-5.41-.59-8.13 0-30.86 25.01-55.87 55.87-55.87 2.1 0 4.17.12 6.21.35a55.683 55.683 0 0 0-21.79-4.41Zm201.59 70.62c-1.29.78-2.6 1.51-3.95 2.19h2.14v.13c.62-.76 1.23-1.53 1.81-2.32Zm-55.23 2.19c-18.54-9.38-31.26-28.61-31.26-50.81a56.637 56.637 0 0 1 11.06-33.71c-16.38 9.99-27.32 28.03-27.32 48.62 0 13.61 4.78 26.11 12.76 35.9h34.76Zm69.4-98.65c1.49 4.17 2.26 8.57 2.25 13 0 21.28-17.25 38.54-38.54 38.54-3.89 0-7.64-.58-11.17-1.65a34.303 34.303 0 0 0 22.22 8.11c19.05 0 34.49-15.44 34.49-34.49 0-9.09-3.52-17.35-9.26-23.51Z"/>
  <path d="M511.53 404.33H94.8c-2.65 0-4.8 2.15-4.8 4.8v6.42c0 7.8 6.32 14.11 14.11 14.11H502.2c7.8 0 14.11-6.32 14.11-14.11v-6.42c0-2.65-2.15-4.8-4.8-4.8Z" fill="#cfc3ca" stroke-width="0"/>
  <path d="M511.53 404.33H121.6v.32c0 8.14 6.59 14.73 14.73 14.73H515.8c.34-1.22.53-2.5.53-3.83v-6.42c0-2.65-2.15-4.8-4.8-4.8Z" fill="#ded5da" stroke-width="0"/>
  <path class="cls-13" d="M107.08 423.33h-.05a2.69 2.69 0 0 1-2.69-2.69v-16.31h5.43v16.31c0 1.48-1.2 2.69-2.69 2.69Zm11.83 0h-.05a2.69 2.69 0 0 1-2.69-2.69v-16.31h5.43v16.31c0 1.48-1.2 2.69-2.69 2.69Zm11.83 0h-.05a2.69 2.69 0 0 1-2.69-2.69v-16.31h5.43v16.31c0 1.48-1.2 2.69-2.69 2.69Zm11.83 0h-.05a2.69 2.69 0 0 1-2.69-2.69v-16.31h5.43v16.31c0 1.48-1.2 2.69-2.68 2.69Z"/>
  <path class="cls-2" d="M152.39 397.12H126.1a4.5 4.5 0 0 0-4.5 4.5v2.71h35.28v-2.71a4.5 4.5 0 0 0-4.5-4.5Zm40.31 0h-26.29a4.5 4.5 0 0 0-4.5 4.5v2.71h35.28v-2.71a4.5 4.5 0 0 0-4.5-4.5Zm40.31 0h-26.29a4.5 4.5 0 0 0-4.5 4.5v2.71h35.28v-2.71a4.5 4.5 0 0 0-4.5-4.5Zm220.94 0h26.29a4.5 4.5 0 0 1 4.5 4.5v2.71h-35.28v-2.71a4.5 4.5 0 0 1 4.5-4.5Zm-40.31 0h26.29a4.5 4.5 0 0 1 4.5 4.5v2.71h-35.28v-2.71a4.5 4.5 0 0 1 4.5-4.5Zm-40.31 0h26.29a4.5 4.5 0 0 1 4.5 4.5v2.71h-35.28v-2.71a4.5 4.5 0 0 1 4.5-4.5Zm-130.79 4.5v2.71h121.27v-2.71a4.5 4.5 0 0 0-4.5-4.5H247.04a4.5 4.5 0 0 0-4.5 4.5Z"/>
  <path d="M335.36 412.79h-64.38c-3.35 0-6.07-2.72-6.07-6.07v-2.39h76.52v2.39c0 3.35-2.72 6.07-6.07 6.07Z" fill="#c4b9c0" stroke-width="0"/>
  <path class="cls-12" d="M296.26 121.25c-13.94 19.61-20.79 63.69-14.32 91.31 1.6 6.84 5.4 6.02 6.9 2.85 6.47-13.66 17.32-25.33 29.17-32.92-7.91-16.76-13.75-39.81-16.27-68.2 0 0-2.05 2.14-5.48 6.95Z"/>
  <path class="cls-1" d="M296.26 121.25c-11.71 16.48-18.42 50.24-16.42 76.99.97-22.05 13.19-46.13 14.49-49.08 1.71-3.88 3.2-2.18 2.13-9.96-.87-6.34-.46-13.48.41-18.8-.2.27-.4.55-.61.85Z"/>
  <path class="cls-12" d="M388.59 121.25c13.94 19.61 20.79 63.69 14.32 91.31-1.6 6.84-5.4 6.02-6.9 2.85-6.47-13.66-17.32-25.33-29.17-32.92 7.91-16.76 13.75-39.81 16.27-68.2 0 0 2.05 2.14 5.47 6.95Z"/>
  <path class="cls-1" d="M388.59 121.25c11.71 16.48 18.42 50.24 16.42 76.99-.97-22.05-13.19-46.13-14.49-49.08-1.71-3.88-3.2-2.18-2.13-9.96.87-6.34.46-13.48-.41-18.8.2.27.4.55.61.85Z"/>
  <path d="M315.27 177.73c-31.15-65.92-4.65-142.51 18.54-171.49 6.17-7.72 11.11-7.72 17.53 0 21.82 26.22 50.07 103.72 18.54 171.49h-54.62Z" fill="#e5e7eb" stroke-width="0"/>
  <path class="cls-7" d="M369.88 177.73c31.53-67.77 3.27-145.27-18.54-171.49-4.76-5.72-8.7-7.19-12.94-4.44 4.43 2.12 8.89 15.35 11.24 26.32 7.85 36.65 12.41 83.18.8 149.61h19.45Z"/>
  <path class="cls-7" d="M344.57 109.48c12.06 0 21.84-9.78 21.84-21.84s-9.78-21.84-21.84-21.84-21.84 9.78-21.84 21.84 9.78 21.84 21.84 21.84Z"/>
  <path d="M343.06 104.46c11.6 0 21-9.4 21-21s-9.4-21-21-21-21 9.4-21 21 9.4 21 21 21Z" fill="#695a68" stroke-width="0"/>
  <path d="M343.06 98.05c8.06 0 14.59-6.53 14.59-14.59s-6.53-14.59-14.59-14.59-14.59 6.53-14.59 14.59 6.53 14.59 14.59 14.59Z" fill="#ffc641" stroke-width="0"/>
  <path d="M351.02 75.39a11.3 11.3 0 0 0-7.99-3.3c-6.26 0-11.33 5.07-11.33 11.33 0 3.12 1.26 5.94 3.3 7.99l16.02-16.02Z" fill="#d9a93a" stroke-width="0"/>
  <path class="cls-7" d="M323.75 183.9h37.41v7.71h-37.41v-7.71Z"/>
  <path d="M314.09 175.62h56.59v9.53h-56.59v-9.53Z" fill="#675855" stroke-width="0"/>
  <path d="M350.65 175.62h20.03v9.53h-20.03v-9.53Z" fill="#4e3c38" stroke-width="0"/>
  <path d="M360.27 196.5h-35.56c-8.53 8.66-12.24 33.69 1.49 52.67 2.09-3.04 3.04-4.74 5.69-4.93-.95 9.86.95 24.66 14.04 38.13 13.18-12.23 34.32-60.18 14.34-85.87Z" fill="#e95040" stroke-width="0"/>
  <path class="cls-18" d="M325.8 206.94c-4.59 7.95-6.18 20.25-.03 36.43.34-4.44 5.98-12.3 10.08-14.69-2.73 8.37-.51 24.77 10.94 42.55 8.03-8.54 15.55-23.41 13.33-42.38 1.54-.51 2.68.34 3.88 1.88.52-6.58-.1-16.48-4.16-23.79H325.8Z"/>
  <path class="cls-10" d="M206.9 166.97c-2.72-15.38-16.15-27.07-32.31-27.07a32.695 32.695 0 0 0-20.69 7.34c.03-.6.04-1.2.04-1.8 0-19.71-15.98-35.68-35.68-35.68s-35.68 15.97-35.68 35.68c0 2.36.23 4.66.67 6.9a23.781 23.781 0 0 0-16.75-6.9c-12.38 0-22.55 9.45-23.69 21.53H206.9Zm329.33 109.17c.24-1.71.37-3.45.37-5.23 0-2.28-.21-4.51-.59-6.67-.26.14-.51.29-.76.44-1.89-10.33-8.14-19.14-16.76-24.47-3.41 15.75-16.69 27.82-33.03 29.44-3.26-7.69-10.1-13.5-18.43-15.32-.24.45-.47.91-.69 1.37h-.04c-4.11 9.02-13.2 15.3-23.76 15.3-1.57 0-3.1-.15-4.59-.41-.69 1.79-1.17 3.66-1.43 5.56h99.72Zm39.09 0a28.576 28.576 0 0 0-10.08-11.1 28.68 28.68 0 0 1-12.65 11.1h22.73Zm-487.21 29.8c.21-1.51.32-3.05.32-4.62 0-2.01-.18-3.98-.53-5.89-.23.13-.45.26-.67.39-1.67-9.13-7.19-16.91-14.81-21.62-3.02 13.91-14.74 24.58-29.18 26.01a23.107 23.107 0 0 0-16.29-13.54c-.21.4-.41.8-.61 1.21h-.04c-3.63 7.96-11.66 13.51-21 13.51-1.38 0-2.74-.13-4.05-.37a21.3 21.3 0 0 0-1.26 4.92H88.1Zm34.53 0c-2.04-4-5.12-7.39-8.91-9.81a25.28 25.28 0 0 1-11.18 9.81h20.09Z"/>
  <path class="cls-10" d="M44.51 160.14a23.37 23.37 0 0 0-1.7 6.83h103.3a35.73 35.73 0 0 0 7.82-22.35v-.24c-.43-14.7-9.76-27.17-22.78-32.21.8 3.01 1.21 6.12 1.21 9.24 0 19.8-16.05 35.85-35.85 35.85-3.4 0-6.7-.48-9.82-1.37a24.91 24.91 0 0 0-3.59-4.41c.05.29.1.58.16.86a23.756 23.756 0 0 0-7.79-5.14c-3.78 8.56-12.34 14.53-22.3 14.53-3.05 0-5.97-.57-8.66-1.59Zm138.76-19.07c-2.68 13.25-13.32 23.62-26.71 25.9h50.34c-2.21-12.52-11.52-22.59-23.63-25.9Z"/>
  <path d="M326.91 28.33c-12.45 19.56-29.36 70.21-12.86 123.83l14.09-.06c-13.24-23.74-16.84-91.87-1.23-123.76Z" fill="#f1f5f9" stroke-width="0"/>
  <path class="cls-12" d="M351.34 6c-6.42-7.87-11.36-7.87-17.53 0-2.97 3.79-6 8.37-8.95 13.63l35.23-.19c-3.03-5.4-5.79-9.81-8.75-13.44Zm10.93 18.08h-39.88c-.82 1.55-1.61 3.12-2.38 4.71l44.5.02c-.79-1.62-1.44-3.2-2.24-4.72Z"/>
  <path d="M362.86 24.06H348.7c.34 1.37.66 2.73.94 4.06l.14.68h15.45c-.76-1.59-1.56-3.17-2.38-4.74ZM351.42 5.81c-4.76-5.72-8.91-7.4-13.21-4.21 3.3 1.58 6.81 9.53 9.26 17.91l12.87-.05c-3.01-5.24-5.98-10.13-8.92-13.66Z" fill="#b91c1c" stroke-width="0"/>
</svg>