<svg id="Layer_1" xmlns="http://www.w3.org/2000/svg" viewBox="0 0 386.92 546.13">
  <path d="m386.92 107.33-35.25 394.88-158.45 43.93-158.01-43.86L0 107.33h386.92Z" fill="#3654a2"/>
  <path d="m321.49 477.06 30.12-337.44H193.46v372.94l128.03-35.5Z" fill="#3b60ab"/>
  <path d="m80.72 286.1 4.34 48.44h108.39V286.1H80.72Zm112.74-98.04H72l4.4 48.44h117.06v-48.44Zm0 274.23v-50.4l-.21.06-53.95-14.57-3.45-38.63H87.23l6.79 76.05 99.22 27.54.22-.06Z" fill="#ebebeb"/>
  <path fill="#ffffff" d="M91.06 0h58.67v24.53H115.6v24.53h34.13v24.53H91.06V0Zm70.4 0h58.67v21.33H186v4.27h34.13v49.07h-58.67v-22.4h34.13V48h-34.13V0Zm70.4 0h58.67v21.33H256.4v4.27h34.13v49.07h-58.67v-22.4h34.13V48h-34.13V0ZM252.94 334.54l-5.62 62.82-54.02 14.58v50.39l99.3-27.52.73-8.18 11.38-127.52 1.18-13.01 8.74-98.04H193.29v48.44h68.25l-4.41 49.6h-63.85v48.44h59.65Z"/>
</svg>