<svg width="239" height="68" viewBox="0 0 239 68" xmlns="http://www.w3.org/2000/svg">
  <g fill-rule="nonzero" fill="#FFF">
    <path d="M72.17 52.68h-4.44V17.6H87.9v4.31H72.17v11.518H86.36v4.21H72.17V52.68Zm24.082-30.03a3.11 3.11 0 0 1-3.97.404 3.22 3.22 0 0 1-1.165-3.875 3.135 3.135 0 0 1 3.517-1.914c1.472.296 2.533 1.606 2.534 3.13a3.086 3.086 0 0 1-.92 2.254h.004Zm0 30.03H91.81V28.674h4.442V52.68Zm9.746 0h-4.441V28.674h4.245v3.92h.192a6.124 6.124 0 0 1 2.775-3.235 7.856 7.856 0 0 1 4.08-1.275 8.348 8.348 0 0 1 3.33.59l-1.69 4.21a6.622 6.622 0 0 0-2.364-.344 5.764 5.764 0 0 0-4.272 1.936c-1.239 1.291-1.859 2.982-1.859 5.072l.004 13.132Zm22.35.766c-3.571 0-6.474-1.209-8.709-3.625-2.234-2.417-3.353-5.465-3.355-9.144a13.336 13.336 0 0 1 3.257-9.014 10.489 10.489 0 0 1 8.325-3.774c3.507 0 6.314 1.16 8.423 3.48 2.109 2.319 3.162 5.422 3.16 9.308l-.05.834h-18.681c.128 2.417.925 4.33 2.39 5.742a7.186 7.186 0 0 0 5.139 2.105c3.185 0 5.34-1.372 6.466-4.115l3.959 1.665a10.728 10.728 0 0 1-3.812 4.677c-1.772 1.24-3.942 1.86-6.511 1.86Zm6.373-15.693c-.096-1.373-.715-2.68-1.86-3.92-1.143-1.24-2.843-1.847-5.1-1.822a6.311 6.311 0 0 0-4.272 1.57 8.03 8.03 0 0 0-2.485 4.21l13.717-.038Zm20.774 15.693a9.922 9.922 0 0 1-4.833-1.149 8.234 8.234 0 0 1-3.209-2.94h-.192v3.323h-4.25V17.6h4.442v11.074l-.192 3.33h.192a8.234 8.234 0 0 1 3.209-2.94 9.927 9.927 0 0 1 4.833-1.175c3.057 0 5.696 1.225 7.918 3.675 2.222 2.45 3.332 5.487 3.33 9.113 0 3.626-1.11 6.664-3.33 9.113-2.22 2.45-4.859 3.668-7.918 3.656Zm-.724-4.115a7.015 7.015 0 0 0 5.309-2.377c1.48-1.585 2.22-3.683 2.22-6.296 0-2.613-.74-4.712-2.22-6.297a7.194 7.194 0 0 0-5.315-2.374 7.193 7.193 0 0 0-5.325 2.351c-1.463 1.567-2.194 3.674-2.194 6.32 0 2.646.739 4.759 2.217 6.338a7.025 7.025 0 0 0 5.323 2.354l-.015-.02Zm23.278 4.115c-2.513 0-4.612-.735-6.296-2.205-1.684-1.47-2.529-3.413-2.534-5.83 0-2.612.998-4.661 2.994-6.146 1.996-1.486 4.456-2.228 7.382-2.228 2.607 0 4.743.49 6.41 1.47v-.685a5.397 5.397 0 0 0-1.787-4.238 6.351 6.351 0 0 0-4.385-1.573 6.727 6.727 0 0 0-3.5.93 4.78 4.78 0 0 0-2.148 2.55l-4.053-1.765c.548-1.442 1.626-2.779 3.235-4.011 1.608-1.233 3.732-1.845 6.371-1.837 3.017 0 5.53.893 7.541 2.679 2.011 1.786 3.009 4.317 2.994 7.594V52.68h-4.26v-3.33h-.193c-1.772 2.73-4.362 4.096-7.77 4.096Zm.724-4.115a7.172 7.172 0 0 0 5-2.063 6.5 6.5 0 0 0 2.262-4.922c-1.257-1.047-3.142-1.57-5.656-1.57-2.156 0-3.781.474-4.875 1.42a4.286 4.286 0 0 0-1.64 3.33 3.22 3.22 0 0 0 1.508 2.794 5.901 5.901 0 0 0 3.401 1.03v-.02Zm24.564 4.115c-2.64 0-4.819-.654-6.538-1.96a11.57 11.57 0 0 1-3.77-4.9l3.959-1.664c1.257 3.005 3.393 4.508 6.41 4.508a5.793 5.793 0 0 0 3.393-.93 2.862 2.862 0 0 0 1.327-2.45c0-1.566-1.079-2.628-3.235-3.184l-4.777-1.175a11.306 11.306 0 0 1-4.295-2.227 5.391 5.391 0 0 1-2.028-4.433c0-2.123.925-3.845 2.775-5.167a11.026 11.026 0 0 1 6.587-1.983c1.959-.031 3.89.47 5.595 1.451a8.115 8.115 0 0 1 3.521 4.141l-3.857 1.6c-.867-2.123-2.67-3.184-5.406-3.184a6.233 6.233 0 0 0-3.33.834 2.543 2.543 0 0 0-1.35 2.255c0 1.372 1.046 2.304 3.138 2.794l4.679 1.129c2.219.51 3.86 1.403 4.924 2.68a6.565 6.565 0 0 1 1.59 4.309 6.715 6.715 0 0 1-2.605 5.39c-1.736 1.443-3.972 2.166-6.707 2.166Zm23.889 0c-3.572 0-6.475-1.209-8.71-3.625-2.234-2.417-3.353-5.471-3.355-9.163a13.336 13.336 0 0 1 3.257-9.014 10.507 10.507 0 0 1 8.337-3.755c3.519 0 6.326 1.16 8.422 3.48 2.097 2.319 3.15 5.422 3.16 9.308l-.049.834h-18.697c.128 2.417.925 4.33 2.39 5.742a7.186 7.186 0 0 0 5.15 2.097c3.185 0 5.34-1.371 6.467-4.115l3.959 1.665a10.724 10.724 0 0 1-3.812 4.678c-1.772 1.245-3.945 1.868-6.52 1.868Zm6.372-15.693c-.096-1.373-.715-2.68-1.86-3.92-1.143-1.24-2.84-1.847-5.093-1.822a6.315 6.315 0 0 0-4.272 1.57 8.03 8.03 0 0 0-2.484 4.21l13.709-.038ZM2.154 44.282l6.62-42.581a1.517 1.517 0 0 1 2.841-.485l7.118 13.36-16.58 29.706Zm47.012 10.333-6.302-39.187a1.525 1.525 0 0 0-1.036-1.2 1.514 1.514 0 0 0-1.535.375L.547 54.615 22.539 67.01a4.538 4.538 0 0 0 4.444 0l22.183-12.395ZM31.295 20.417 26.2 10.67a1.518 1.518 0 0 0-1.345-.816c-.564 0-1.082.315-1.344.816L1.147 50.752l30.148-30.335Z"/>
  </g>
</svg>