<svg xmlns="http://www.w3.org/2000/svg" viewBox="0 0 512 208.13">
  <defs>
    <clipPath id="a">
      <path fill="none" d="M0 0h512v208.13H0z"/>
    </clipPath>
  </defs>
  <g clip-path="url(#a)">
    <path d="M117.44 207.04v-52.43l1.09-1.09h10.92l1.09 1.09v52.43l-1.09 1.09h-10.92l-1.09-1.09Zm0-153.51V1.09L118.53 0h10.92l1.09 1.09v52.43l-1.09 1.09h-10.92l-1.09-1.09ZM69.96 169.25h-1.54l-7.72-7.73v-1.54l18.03-18.03h8.18l1.1 1.09v8.18l-18.04 18.03Zm0-130.35h-1.54l-7.72 7.73v1.54L78.73 66.2h8.18l1.1-1.09v-8.18L69.97 38.9ZM1.09 97.51h74.28l1.09 1.09v10.92l-1.09 1.09H1.09L0 109.52V98.6l1.09-1.09Zm439.91 0h69.91L512 98.6v10.92l-1.09 1.09h-74.28l-1.09-1.09 4.37-10.92 1.09-1.09Z" fill="#2ab5b5"/>
    <path d="m212.06 108.73-1.09 1.09h-33.88l-1.09 1.09c0 2.19 2.19 8.74 10.93 8.74 3.28 0 6.56-1.09 7.65-3.28l1.09-1.09h13.12l1.09 1.09c-1.09 6.56-6.56 16.4-22.95 16.4-18.58 0-27.33-13.12-27.33-28.42s8.74-28.42 26.23-28.42 26.23 13.12 26.23 28.42v4.37Zm-16.4-10.93c0-1.09-1.09-8.74-9.84-8.74s-9.84 7.65-9.84 8.74l1.09 1.09h17.49l1.09-1.09Zm47 17.49c0 2.19 1.09 3.28 3.28 3.28h9.84l1.09 1.09v10.93l-1.09 1.09h-9.84c-9.84 0-18.58-4.37-18.58-16.4V91.23l-1.09-1.09h-7.65l-1.09-1.09V78.12l1.09-1.09h7.65l1.09-1.09V66.1l1.09-1.09h13.12l1.09 1.09v9.84l1.09 1.09h12.02l1.09 1.09v10.93l-1.09 1.09h-12.02l-1.09 1.09v24.05Zm40.44 16.4h-13.12l-1.09-1.09V56.26l1.09-1.09h13.12l1.09 1.09v74.32l-1.09 1.09Zm29.51-63.39h-13.12l-1.09-1.09V56.28l1.09-1.09h13.12l1.09 1.09v10.93l-1.09 1.09Zm0 63.39h-13.12l-1.09-1.09V78.14l1.09-1.09h13.12l1.09 1.09v52.46l-1.09 1.09Zm51.37-75.42V67.2l-1.09 1.09h-9.84c-2.19 0-3.28 1.09-3.28 3.28v4.37l1.09 1.09h10.93l1.09 1.09v10.93l-1.09 1.09h-10.93l-1.09 1.09v39.35l-1.09 1.09h-13.12l-1.09-1.09V91.23l-1.09-1.09h-7.65l-1.09-1.09V78.12l1.09-1.09h7.65l1.09-1.09v-4.37c0-12.02 8.74-16.4 18.58-16.4h9.84l1.09 1.09Zm40.44 76.51c-4.37 10.93-8.74 17.49-24.05 17.49h-5.47l-1.09-1.09v-10.93l1.09-1.09h5.47c5.46 0 6.56-1.09 7.65-4.37v-1.09l-17.49-42.63V78.14l1.09-1.09h9.84l1.09 1.09 13.12 37.16h1.09l13.12-37.16 1.09-1.09h9.84l1.09 1.09v10.93l-17.49 43.72Zm-268.97-1.09-1.09-1.09V98.93c0-5.46-2.14-9.7-8.74-9.84-3.39-.09-7.27 0-11.42.17l-.62.63v40.7l-1.09 1.09H99.38l-1.09-1.09V77.54l1.09-1.09 29.51-.27c14.78 0 20.77 10.16 20.77 21.62v32.79l-1.09 1.09h-13.12Z" fill="#fff"/>
  </g>
</svg>