<svg id="Layer_1" xmlns="http://www.w3.org/2000/svg" viewBox="0 0 394 79.43">
  <path fill="#ffffff" d="M261.92.03h68.63V12.7h-27.22v66.64h-13.61V12.7h-27.79V.03Zm-112.87 0V12.7H94.04v20.38h44.24v12.67H94.04v20.93h55.01v12.67H80.43V.03h68.63Zm34.27.03h-17.81l63.81 79.31h17.87l-31.91-39.63L247.13.13l-17.82.03-22.96 28.52L183.32.07Zm18.28 56.65-8.92-11.09-27.22 33.81h17.87l18.28-22.72Z"/>
  <path d="M80.91 79.34 17.01 0H0v79.31h13.61V16.95L63.8 79.34h17.1Z" fill-rule="evenodd" fill="#fff"/>
  <path fill="#ffffff" d="M333.61 78.86c-.96.02-1.88-.36-2.55-1.04a3.331 3.331 0 0 1-1.05-2.52c0-.96.34-1.79 1.05-2.48.68-.68 1.6-1.05 2.55-1.04.96 0 1.8.35 2.51 1.04.72.69 1.08 1.52 1.09 2.48 0 .63-.18 1.25-.51 1.79-.32.53-.78.97-1.32 1.28-.53.32-1.15.49-1.77.48Zm23.23-33.41h6.03v23.24c0 2.14-.47 3.96-1.37 5.5-.91 1.54-2.18 2.71-3.8 3.54-1.61.82-3.51 1.24-5.65 1.24-1.96 0-3.73-.36-5.29-1.05-1.57-.69-2.81-1.73-3.73-3.09-.92-1.36-1.38-3.06-1.38-5.1h6.04c0 .89.21 1.66.6 2.31.38.64.94 1.15 1.61 1.48.69.35 1.48.52 2.38.52.97 0 1.8-.2 2.47-.61.67-.4 1.19-1 1.55-1.8.35-.79.54-1.77.54-2.93V45.46Zm30.85 9.09c-.15-1.41-.79-2.51-1.92-3.29-1.14-.79-2.6-1.18-4.4-1.18-1.26 0-2.35.19-3.26.56-.9.38-1.61.89-2.08 1.54-.48.65-.72 1.38-.74 2.21 0 .69.17 1.29.49 1.79.32.51.76.94 1.32 1.28.58.36 1.2.66 1.85.88.68.24 1.36.44 2.05.6l3.14.77c1.25.28 2.48.68 3.66 1.18 1.14.47 2.2 1.1 3.16 1.87.92.74 1.68 1.67 2.21 2.73.54 1.06.82 2.31.82 3.75 0 1.94-.5 3.64-1.5 5.11-1.01 1.46-2.45 2.61-4.35 3.43-1.89.82-4.18 1.24-6.87 1.24s-4.87-.4-6.78-1.2c-1.92-.79-3.41-1.95-4.49-3.48s-1.66-3.39-1.74-5.58h5.98c.08 1.14.45 2.1 1.08 2.87.64.76 1.47 1.33 2.48 1.71 1.02.37 2.17.56 3.43.56s2.48-.2 3.49-.59c1-.39 1.78-.94 2.34-1.65.57-.7.86-1.53.87-2.47 0-.86-.27-1.58-.77-2.14-.51-.56-1.21-1.04-2.1-1.42-1.02-.42-2.08-.77-3.15-1.03l-3.82-.96c-2.76-.7-4.94-1.76-6.54-3.19-1.6-1.43-2.4-3.32-2.4-5.69 0-1.94.54-3.65 1.61-5.12 1.07-1.46 2.54-2.6 4.39-3.41 1.86-.82 3.97-1.22 6.31-1.22s4.46.4 6.26 1.22c1.8.81 3.21 1.94 4.23 3.37 1.02 1.44 1.56 3.08 1.59 4.94h-5.85Z"/>
</svg>