<svg id="Layer_1" xmlns="http://www.w3.org/2000/svg" viewBox="0 0 589.83 361.24">
  <defs>
    <linearGradient id="linear-gradient" x1="-.62" y1="602.35" x2=".98" y2="602.35" gradientTransform="scale(-115.31 115.31) rotate(63.89 481.09 300.147)" gradientUnits="userSpaceOnUse">
      <stop offset=".3" stop-color="#3f863d"/>
      <stop offset=".5" stop-color="#54934f"/>
      <stop offset=".8" stop-color="#5bae45"/>
    </linearGradient>
    <linearGradient id="linear-gradient-2" x1="-3.4" y1="600.32" x2="-2.36" y2="600.32" gradientTransform="scale(177.06 -177.06) rotate(36.46 911.858 305.964)" gradientUnits="userSpaceOnUse">
      <stop offset=".57" stop-color="#3f863d"/>
      <stop offset=".72" stop-color="#619857"/>
      <stop offset="1" stop-color="#76ac64"/>
    </linearGradient>
    <linearGradient id="linear-gradient-3" x1="-2.08" y1="599.57" x2="-1.14" y2="599.57" gradientTransform="matrix(129.89 0 0 -129.89 428.88 78031.21)" gradientUnits="userSpaceOnUse">
      <stop offset=".16" stop-color="#70b749"/>
      <stop offset=".38" stop-color="#79b460"/>
      <stop offset=".47" stop-color="#75ac64"/>
      <stop offset=".7" stop-color="#649e59"/>
      <stop offset=".9" stop-color="#3f863d"/>
    </linearGradient>
    <clipPath id="clippath">
      <path class="cls-1" d="m214.3 83.45-56.17 32.42a6.774 6.774 0 0 0-3.39 5.87v64.89c0 2.42 1.29 4.66 3.39 5.87l56.18 32.45a6.804 6.804 0 0 0 6.79 0l56.17-32.45a6.774 6.774 0 0 0 3.39-5.87v-64.88c0-2.42-1.29-4.66-3.4-5.87L221.1 83.46a6.823 6.823 0 0 0-6.8 0"/>
    </clipPath>
    <clipPath id="clippath-1">
      <path class="cls-1" d="M156.12 190.76c.54.7 1.21 1.3 2 1.75l48.19 27.83 8.03 4.61c1.2.69 2.57.99 3.91.89.45-.04.9-.12 1.33-.24l59.25-108.48a6.46 6.46 0 0 0-1.58-1.25l-36.78-21.24-19.44-11.19c-.55-.31-1.14-.55-1.76-.71l-63.14 108.02Z"/>
    </clipPath>
    <clipPath id="clippath-2">
      <path class="cls-1" d="M217.01 82.58a6.8 6.8 0 0 0-2.71.87l-56.01 32.33 60.4 110.01c.84-.12 1.67-.4 2.41-.83l56.17-32.45a6.81 6.81 0 0 0 3.28-4.63L218.98 82.69c-.45-.09-.91-.14-1.37-.14-.19 0-.37 0-.56.03"/>
    </clipPath>
    <style>
      .cls-1{fill:none}.cls-4{fill:#679f63}
    </style>
  </defs>
  <path class="cls-4" d="M291.53 361.24c-1.95 0-3.88-.51-5.59-1.49l-17.78-10.53c-2.66-1.49-1.36-2.01-.48-2.31 3.54-1.24 4.26-1.52 8.04-3.67.4-.23.92-.15 1.32.09l13.66 8.11c.49.27 1.19.27 1.65 0l53.27-30.75c.49-.28.81-.85.81-1.44v-61.47c0-.61-.32-1.16-.82-1.47l-53.25-30.72c-.49-.29-1.15-.29-1.64 0l-53.23 30.72c-.52.29-.84.87-.84 1.45v61.47c0 .59.32 1.15.83 1.43l14.59 8.43c7.92 3.96 12.76-.71 12.76-5.4v-60.67c0-.87.68-1.53 1.55-1.53h6.75c.84 0 1.53.67 1.53 1.53v60.69c0 10.56-5.76 16.63-15.77 16.63-3.08 0-5.51 0-12.28-3.33l-13.97-8.05a11.282 11.282 0 0 1-5.59-9.72v-61.47c0-4 2.13-7.73 5.59-9.71l53.32-30.76c3.37-1.91 7.85-1.91 11.2 0l53.25 30.77c3.46 2.01 5.58 5.71 5.59 9.71v61.47c0 3.99-2.15 7.71-5.59 9.71l-53.25 30.76c-1.71.98-3.64 1.5-5.61 1.49"/>
  <path class="cls-4" d="M307.98 318.88c-23.31 0-28.19-10.7-28.19-19.67 0-.85.69-1.53 1.54-1.53h6.88c.76 0 1.4.55 1.52 1.3 1.04 7.01 4.13 10.55 18.23 10.55 11.23 0 16-2.54 16-8.49 0-3.43-1.36-5.97-18.8-7.68-14.59-1.44-23.6-4.65-23.6-16.32 0-10.75 9.07-17.15 24.25-17.15 17.05 0 25.51 5.92 26.57 18.64.07.85-.56 1.6-1.42 1.67h-7.05c-.72 0-1.35-.51-1.49-1.2-1.67-7.37-5.69-9.73-16.64-9.73-12.25 0-13.68 4.27-13.68 7.47 0 3.88 1.68 5.01 18.21 7.2 16.37 2.17 24.15 5.24 24.15 16.75s-9.68 18.25-26.56 18.25m64.88-65.19h1.79c1.47 0 1.75-1.03 1.75-1.63 0-1.57-1.08-1.57-1.68-1.57h-1.84v3.2Zm-2.19-5.04h3.96c1.36 0 4.03 0 4.03 3.04 0 2.12-1.36 2.56-2.17 2.83 1.59.11 1.69 1.15 1.91 2.61.11.92.28 2.51.6 3.04h-2.44c-.07-.53-.44-3.47-.44-3.63-.16-.65-.39-.97-1.2-.97h-2.01v4.61h-2.23v-11.53Zm-4.76 5.73c0 4.77 3.85 8.64 8.59 8.64s8.63-3.95 8.63-8.64-3.91-8.59-8.64-8.59-8.59 3.75-8.59 8.57m18.88.04c0 5.65-4.63 10.27-10.27 10.27s-10.27-4.56-10.27-10.27 4.77-10.27 10.27-10.27 10.25 4.47 10.25 10.27"/>
  <path d="M126.58 120.73c0-2.45-1.29-4.71-3.41-5.93L66.7 82.31c-.94-.55-2.01-.86-3.1-.89h-.58c-1.08.04-2.15.33-3.12.89l-56.48 32.5A6.9 6.9 0 0 0 0 120.74l.12 87.52c0 1.21.63 2.35 1.69 2.95 1.04.64 2.35.64 3.39 0l33.57-19.23c2.12-1.26 3.41-3.49 3.41-5.92v-40.89c0-2.44 1.29-4.69 3.41-5.91l14.29-8.23c1.04-.6 2.21-.92 3.41-.92 1.17 0 2.36.3 3.39.92l14.29 8.23a6.812 6.812 0 0 1 3.41 5.91v40.88c0 2.43 1.31 4.67 3.42 5.92l33.55 19.21c1.05.63 2.36.63 3.41 0a3.4 3.4 0 0 0 1.69-2.95l.11-87.51Zm266.49 45.57c0 .61-.32 1.17-.85 1.47l-19.4 11.18c-.53.3-1.18.3-1.7 0l-19.4-11.18c-.53-.3-.85-.87-.85-1.47v-22.39c0-.61.32-1.17.84-1.48l19.39-11.2c.53-.31 1.19-.31 1.72 0l19.4 11.2c.53.31.85.87.85 1.48v22.39ZM398.31.43a3.417 3.417 0 0 0-3.39.04 3.413 3.413 0 0 0-1.68 2.95v86.66c0 1.32-1.06 2.39-2.38 2.39-.42 0-.83-.11-1.2-.32L375.51 84a6.812 6.812 0 0 0-6.82 0l-56.49 32.6a6.792 6.792 0 0 0-3.41 5.89v65.23c0 2.44 1.3 4.68 3.41 5.91l56.49 32.63a6.86 6.86 0 0 0 6.82 0L432 193.62a6.836 6.836 0 0 0 3.41-5.91V25.15c0-2.47-1.35-4.75-3.51-5.96L398.31.43Zm188.12 142.89a6.823 6.823 0 0 0 3.39-5.9v-15.81a6.81 6.81 0 0 0-3.4-5.9l-56.13-32.59a6.8 6.8 0 0 0-6.84 0l-56.48 32.6a6.815 6.815 0 0 0-3.41 5.91v65.2a6.84 6.84 0 0 0 3.44 5.93l56.12 31.99c2.07 1.19 4.6 1.2 6.69.04l33.95-18.87c1.07-.6 1.75-1.73 1.75-2.96s-.65-2.37-1.72-2.97l-56.83-32.61a3.375 3.375 0 0 1-1.72-2.95v-20.45c0-1.22.64-2.35 1.71-2.95l17.68-10.2c1.05-.61 2.35-.61 3.4 0l17.69 10.2c1.05.6 1.71 1.73 1.71 2.95v16.08c0 1.21.65 2.35 1.71 2.96 1.05.6 2.36.6 3.41-.01l33.89-19.68Z" fill="#fff" fill-rule="evenodd"/>
  <path d="M526.05 140.27c.4-.24.9-.24 1.31 0l10.84 6.25c.41.23.65.67.65 1.13v12.52c0 .47-.25.9-.65 1.13l-10.84 6.25c-.4.24-.9.24-1.31 0l-10.83-6.25a1.32 1.32 0 0 1-.67-1.13v-12.52c0-.47.24-.9.65-1.13l10.85-6.25Z" fill-rule="evenodd" fill="#679f63"/>
  <g clip-path="url(#clippath)">
    <path d="M337.41 110.37 179.12 32.78 97.96 198.35l158.28 77.59 81.16-165.57Z" fill="url(#linear-gradient)"/>
  </g>
  <g clip-path="url(#clippath-1)">
    <path d="m87.69 133.32 111.77 151.27 147.81-109.21L235.49 24.11 87.69 133.32Z" fill="url(#linear-gradient-2)"/>
  </g>
  <g clip-path="url(#clippath-2)">
    <path d="M158.29 82.56V225.8h122.24V82.56H158.29Z" fill="url(#linear-gradient-3)"/>
  </g>
</svg>