<svg xmlns="http://www.w3.org/2000/svg" viewBox="0 0 745 186">
  <path d="M151.74 141.95c1.64 21.27 1.64 31.24 1.64 42.12h-48.83c0-2.37.04-4.54.08-6.74.13-6.83.27-13.96-.83-28.36-1.45-21.07-10.46-25.76-27.02-25.76H0V84.87h79.12c20.92 0 31.37-6.41 31.37-23.39 0-14.93-10.46-23.97-31.37-23.97H0V0h87.84c47.35 0 70.88 22.54 70.88 58.54 0 26.93-16.56 44.49-38.93 47.41 18.88 3.8 29.92 14.63 31.95 36Z" fill-rule="evenodd" fill="#fff"/>
  <path d="M0 184.07v-28.58h51.63c8.62 0 10.5 6.45 10.5 10.29v18.29H0ZM740.94 55.52h-48.4l-22.03 30.95-21.44-30.95H597.2l46.66 63.94-50.71 66.28h48.4l25.79-35.33 25.79 35.33H745l-51-68.32 46.95-61.9ZM436.11 77.1c-5.51-15.18-17.39-25.69-40.28-25.69-19.42 0-33.33 8.76-40.28 23.07V54.92H308.6v130.22h46.95V121.2c0-19.56 5.51-32.41 20.86-32.41 14.2 0 17.68 9.34 17.68 27.15v69.2h46.95V121.2c0-19.56 5.22-32.41 20.86-32.41 14.2 0 17.39 9.34 17.39 27.15v69.2h46.95v-81.76c0-27.15-10.43-51.97-46.08-51.97-21.73 0-37.09 11.1-44.05 25.69Zm-176.4 57.49c-4.35 10.22-12.46 14.6-25.21 14.6-14.2 0-25.79-7.59-26.95-23.65h90.7V112.4c0-35.33-22.89-65.11-66.07-65.11-40.28 0-70.42 29.49-70.42 70.66s29.56 66.57 71 66.57c34.2 0 57.96-16.64 64.62-46.42l-37.67-3.5Zm-51.58-31.83c1.74-12.26 8.4-21.61 23.47-21.61 13.91 0 21.44 9.93 22.02 21.61h-45.5Zm333.46-46.99V186h46.95V55.78h-46.95Zm-.29-12.26h47.53V2.06H541.3v41.46Z" fill="#fff"/>
</svg>