<svg id="Layer_1" xmlns="http://www.w3.org/2000/svg" viewBox="0 0 580.43 111.93">
  <defs>
    <linearGradient id="linear-gradient" x1="50.32" y1="50.04" x2="90.51" y2="33.19" gradientTransform="matrix(1 0 0 -1 0 113.47)" gradientUnits="userSpaceOnUse">
      <stop offset="0" stop-color="#249361"/>
      <stop offset="1" stop-color="#3ecf8e"/>
    </linearGradient>
    <linearGradient id="linear-gradient-2" x1="52.24" y1="91.66" x2="70.57" y2="57.16" gradientTransform="matrix(1 0 0 -1 0 113.47)" gradientUnits="userSpaceOnUse">
      <stop offset="0"/>
      <stop offset="1" stop-opacity="0"/>
    </linearGradient>
    <style>
      .cls-2{fill:#fff}
    </style>
  </defs>
  <path class="cls-2" d="M151.37 66.55c.6 5.6 5.69 15.2 20.48 15.2 12.89 0 19.08-8.2 19.08-16.2 0-7.2-4.9-13.1-14.59-15.1l-6.99-1.5c-2.7-.5-4.49-2-4.49-4.4 0-2.8 2.8-4.9 6.29-4.9 5.59 0 7.69 3.7 8.09 6.6l11.09-2.5c-.6-5.3-5.29-14.2-19.28-14.2-10.59 0-18.38 7.3-18.38 16.1 0 6.9 4.29 12.6 13.79 14.7l6.49 1.5c3.8.8 5.29 2.6 5.29 4.8 0 2.6-2.1 4.9-6.49 4.9-5.79 0-8.69-3.6-8.99-7.5l-11.39 2.5ZM233.4 80.25h12.69c-.2-1.7-.5-5.1-.5-8.9V31.04H232.3v28.61c0 5.7-3.4 9.7-9.29 9.7-6.19 0-8.99-4.4-8.99-9.9V31.04h-13.29v31.11c0 10.7 6.79 19.4 18.68 19.4 5.19 0 10.89-2 13.59-6.6 0 2 .2 4.3.4 5.3ZM273.05 99.26V75.45c2.4 3.3 7.39 6 14.19 6 13.89 0 23.18-11 23.18-25.91s-8.29-25.61-22.68-25.61c-7.39 0-12.89 3.3-15.08 7.1v-6h-12.89v68.23h13.29Zm24.28-43.61c0 8.8-5.39 13.9-12.19 13.9s-12.29-5.2-12.29-13.9 5.49-13.8 12.29-13.8 12.19 5.1 12.19 13.8ZM317.94 66.85c0 7.7 6.39 14.8 16.88 14.8 7.29 0 11.99-3.4 14.48-7.3 0 1.9.2 4.6.5 5.9h12.19c-.3-1.7-.6-5.2-.6-7.8V48.24c0-9.9-5.79-18.7-21.38-18.7-13.19 0-20.28 8.5-21.08 16.2l11.79 2.5c.4-4.3 3.6-8 9.39-8s8.29 2.9 8.29 6.4c0 1.7-.9 3.1-3.7 3.5l-12.09 1.8c-8.19 1.2-14.69 6.1-14.69 14.9Zm19.68 4.9c-4.3 0-6.39-2.8-6.39-5.7 0-3.8 2.7-5.7 6.1-6.2l11.09-1.7v2.2c0 8.7-5.19 11.4-10.79 11.4ZM387.68 80.25v-6c2.6 4.2 7.79 7.2 14.58 7.2 13.99 0 23.18-11.1 23.18-26.01s-8.29-25.71-22.68-25.71c-7.29 0-12.69 3.2-14.89 6.7V7.84h-13.09v72.41h12.89Zm24.48-24.71c0 9-5.39 14-12.19 14s-12.29-5.1-12.29-14 5.59-13.9 12.29-13.9 12.19 4.9 12.19 13.9ZM432.97 66.85c0 7.7 6.39 14.8 16.88 14.8 7.29 0 11.99-3.4 14.49-7.3 0 1.9.2 4.6.5 5.9h12.19c-.3-1.7-.6-5.2-.6-7.8V48.24c0-9.9-5.79-18.7-21.38-18.7-13.19 0-20.28 8.5-21.08 16.2l11.79 2.5c.4-4.3 3.6-8 9.39-8s8.29 2.9 8.29 6.4c0 1.7-.9 3.1-3.7 3.5l-12.09 1.8c-8.19 1.2-14.69 6.1-14.69 14.9Zm19.68 4.9c-4.3 0-6.39-2.8-6.39-5.7 0-3.8 2.7-5.7 6.1-6.2l11.09-1.7v2.2c0 8.7-5.19 11.4-10.79 11.4ZM485.62 66.55c.6 5.6 5.69 15.2 20.48 15.2 12.89 0 19.08-8.2 19.08-16.2 0-7.2-4.89-13.1-14.59-15.1l-6.99-1.5c-2.7-.5-4.49-2-4.49-4.4 0-2.8 2.8-4.9 6.29-4.9 5.6 0 7.69 3.7 8.09 6.6l11.09-2.5c-.6-5.3-5.29-14.2-19.28-14.2-10.59 0-18.38 7.3-18.38 16.1 0 6.9 4.29 12.6 13.79 14.7l6.49 1.5c3.8.8 5.29 2.6 5.29 4.8 0 2.6-2.1 4.9-6.49 4.9-5.79 0-8.69-3.6-8.99-7.5l-11.39 2.5ZM545.36 50.05c.3-4.5 4.1-9.7 10.99-9.7 7.59 0 10.79 4.8 10.99 9.7h-21.98Zm23.28 12.8c-1.6 4.4-5 7.5-11.19 7.5-6.59 0-12.09-4.7-12.39-11.2h35.17c0-.2.2-2.2.2-4.1 0-15.8-9.09-25.51-24.28-25.51-12.59 0-24.18 10.2-24.18 25.91 0 16.6 11.89 26.31 25.38 26.31 12.09 0 19.88-7.1 22.38-15.6l-11.09-3.3Z"/>
  <path d="M63.68 110.07c-2.86 3.6-8.66 1.63-8.73-2.97l-1.01-67.25h45.22c8.19 0 12.76 9.46 7.67 15.87l-43.15 54.35Z" fill="url(#linear-gradient)"/>
  <path d="M63.68 110.07c-2.86 3.6-8.66 1.63-8.73-2.97l-1.01-67.25h45.22c8.19 0 12.76 9.46 7.67 15.87l-43.15 54.35Z" fill="url(#linear-gradient-2)" fill-opacity=".2"/>
  <path d="M45.29 1.86c2.86-3.6 8.66-1.63 8.73 2.97l.44 67.25H9.81c-8.19 0-12.76-9.46-7.67-15.87L45.29 1.86Z" fill="#3ecf8e"/>
</svg>