<svg id="Layer_1" xmlns="http://www.w3.org/2000/svg" viewBox="0 0 257.29 197.38">
  <path fill="#e3e8f1" fill-rule="evenodd" d="M165.27 24.1 188.48 0H0v24.1h165.27Z"/>
  <path fill="#e3e8f1" d="m163.52 95.35 90.04-92.64h-32.82l-75.59 77.08 18.36 15.56ZM233.19 130.45c0 23.66-19.18 42.84-42.84 42.84-19.11 0-35.31-12.52-40.82-29.82l-3.38-10.59-19.3 19.29 1.76 4.19c10.12 24.09 33.94 41.02 61.73 41.02 36.97 0 66.94-29.97 66.94-66.94 0-24.48-13.36-45.68-32.8-57.33l-4.56-2.73-17.67 17.89 8.06 4.26c13.62 7.19 22.87 21.47 22.87 37.91Z"/>
  <path fill="#e3e8f1" fill-rule="evenodd" d="M87.8 191.7V44.67H63.7V191.7h24.1Z"/>
</svg>