<svg xmlns="http://www.w3.org/2000/svg" viewBox="0 0 261.33 32.4">
  <path d="M27 0c-7.2 0-11.7 3.6-13.5 10.8 2.7-3.6 5.85-4.95 9.45-4.05 2.05.51 3.52 2 5.15 3.65 2.65 2.69 5.71 5.8 12.4 5.8 7.2 0 11.7-3.6 13.5-10.8-2.7 3.6-5.85 4.95-9.45 4.05-2.05-.51-3.52-2-5.15-3.65C36.75 3.11 33.69 0 27 0ZM13.5 16.2C6.3 16.2 1.8 19.8 0 27c2.7-3.6 5.85-4.95 9.45-4.05 2.05.51 3.52 2 5.15 3.65 2.65 2.69 5.71 5.8 12.4 5.8 7.2 0 11.7-3.6 13.5-10.8-2.7 3.6-5.85 4.95-9.45 4.05-2.05-.51-3.52-2-5.15-3.65-2.65-2.69-5.71-5.8-12.4-5.8Z" fill-rule="evenodd" fill="#4abaeb"/>
  <path d="M81 13.65h-4.71v9.12c0 2.43 1.6 2.39 4.71 2.24v3.69c-6.31.76-8.82-.99-8.82-5.93v-9.12h-3.5V9.7h3.5V4.6l4.1-1.22V9.7h4.71v3.95ZM98.96 9.7h4.1v19h-4.1v-2.74c-1.44 2.01-3.69 3.23-6.65 3.23-5.17 0-9.46-4.37-9.46-9.99s4.29-9.99 9.46-9.99c2.96 0 5.21 1.22 6.65 3.19V9.7Zm-6 15.58c3.42 0 6-2.55 6-6.08s-2.58-6.08-6-6.08-6 2.55-6 6.08 2.58 6.08 6 6.08ZM109.9 6.85c-1.44 0-2.62-1.22-2.62-2.62 0-1.45 1.18-2.62 2.62-2.62 1.45 0 2.62 1.18 2.62 2.62 0 1.41-1.18 2.62-2.62 2.62Zm-2.05 21.85v-19h4.1v19h-4.1Zm8.85 0V.96h4.1V28.7h-4.1Zm30.74-19h4.33l-5.97 19h-4.03l-3.95-12.81-3.99 12.81h-4.03l-5.97-19h4.33l3.69 13.11 3.99-13.11h3.91l3.95 13.11 3.72-13.11Zm9.42-2.85c-1.44 0-2.62-1.22-2.62-2.62 0-1.45 1.18-2.62 2.62-2.62 1.45 0 2.62 1.18 2.62 2.62 0 1.41-1.18 2.62-2.62 2.62Zm-2.05 21.85v-19h4.1v19h-4.1Zm18.85-19.49c4.26 0 7.3 2.89 7.3 7.83v11.67h-4.1V17.46c0-2.89-1.67-4.41-4.26-4.41s-4.83 1.6-4.83 5.47V28.7h-4.1v-19h4.1v2.43c1.25-1.98 3.31-2.93 5.89-2.93Zm26.75-7.11h4.1v26.6h-4.1v-2.74c-1.44 2.01-3.69 3.23-6.65 3.23-5.17 0-9.46-4.37-9.46-9.99s4.29-9.99 9.46-9.99c2.96 0 5.21 1.22 6.65 3.19V2.1Zm-6 23.18c3.42 0 6-2.55 6-6.08s-2.58-6.08-6-6.08-6 2.55-6 6.08 2.58 6.08 6 6.08Zm23.86 3.91c-5.74 0-10.03-4.37-10.03-9.99s4.29-9.99 10.03-9.99c3.72 0 6.95 1.94 8.47 4.9l-3.53 2.05c-.84-1.79-2.7-2.93-4.98-2.93-3.34 0-5.89 2.55-5.89 5.97s2.55 5.97 5.89 5.97c2.28 0 4.14-1.18 5.05-2.93l3.53 2.01c-1.6 3-4.83 4.94-8.55 4.94Zm15.31-14.25c0 3.46 10.22 1.37 10.22 8.4 0 3.8-3.31 5.85-7.41 5.85-3.8 0-6.54-1.71-7.75-4.45l3.53-2.05c.61 1.71 2.13 2.74 4.22 2.74 1.82 0 3.23-.61 3.23-2.13 0-3.38-10.22-1.48-10.22-8.28 0-3.57 3.08-5.81 6.95-5.81 3.12 0 5.7 1.44 7.03 3.95l-3.46 1.94c-.68-1.48-2.01-2.17-3.57-2.17s-2.77.65-2.77 2.01Zm17.52 0c0 3.46 10.22 1.37 10.22 8.4 0 3.8-3.31 5.85-7.41 5.85-3.8 0-6.54-1.71-7.75-4.45l3.53-2.05c.61 1.71 2.13 2.74 4.22 2.74 1.82 0 3.23-.61 3.23-2.13 0-3.38-10.22-1.48-10.22-8.28 0-3.57 3.08-5.81 6.95-5.81 3.12 0 5.7 1.44 7.03 3.95l-3.46 1.94c-.68-1.48-2.01-2.17-3.57-2.17s-2.77.65-2.77 2.01Z" fill="#fff" fill-rule="evenodd"/>
</svg>