<svg id="Layer_1" xmlns="http://www.w3.org/2000/svg" viewBox="0 0 465.32 62.75">
  <defs>
    <linearGradient id="linear-gradient" x1="49.88" y1="42.44" x2="19" y2="11.56" gradientTransform="matrix(1 0 0 -1 .14 62.56)" gradientUnits="userSpaceOnUse">
      <stop offset="0" stop-color="#448aca"/>
      <stop offset="1" stop-color="#e72c59"/>
    </linearGradient>
    <style>
      .cls-2{fill:#fff}
    </style>
  </defs>
  <path class="cls-2" d="M123.87 23.53v-8.28h-39.9v8.28h15.06v27.53h9.77V23.53h15.06ZM146.42 51.61c12.27 0 19-6.23 19-16.51V15.25h-9.78v18.9c0 5.74-2.99 8.98-9.23 8.98s-9.23-3.24-9.23-8.98v-18.9h-9.78V35.1c0 10.27 6.73 16.51 19 16.51ZM180.38 39.19h9.73l7.68 11.87h11.22l-8.68-12.92c4.89-1.75 7.88-5.64 7.88-10.92 0-7.68-5.74-11.97-14.46-11.97h-23.14v35.81h9.78V39.19Zm0-7.73v-8.03h12.87c3.44 0 5.34 1.5 5.34 4.04 0 2.39-1.9 3.99-5.34 3.99h-12.87ZM212.76 51.06h25.59c7.98 0 12.57-3.79 12.57-10.12 0-4.24-2.69-7.13-5.88-8.43 2.19-1.05 4.89-3.54 4.89-7.48 0-6.33-4.49-9.78-12.42-9.78h-24.74v35.81Zm9.38-21.8v-6.08h14.36c2.69 0 4.19 1.05 4.19 3.04s-1.5 3.04-4.19 3.04h-14.36Zm0 7.33h15.26c2.64 0 4.09 1.3 4.09 3.24s-1.45 3.24-4.09 3.24h-15.26v-6.48ZM274.82 14.65c-12.52 0-21.55 7.83-21.55 18.5s9.03 18.5 21.55 18.5 21.5-7.83 21.5-18.5-8.98-18.5-21.5-18.5Zm0 8.48c6.58 0 11.52 3.89 11.52 10.02s-4.94 10.02-11.52 10.02-11.52-3.89-11.52-10.02 4.94-10.02 11.52-10.02ZM310.4 39.19h9.73l7.68 11.87h11.22l-8.68-12.92c4.89-1.75 7.88-5.64 7.88-10.92 0-7.68-5.74-11.97-14.46-11.97h-23.14v35.81h9.78V39.19Zm0-7.73v-8.03h12.87c3.44 0 5.34 1.5 5.34 4.04 0 2.39-1.9 3.99-5.34 3.99H310.4ZM342.78 15.25v35.81h34.81v-8.28h-25.24v-5.84h22.39v-8.08h-22.39v-5.34h25.24v-8.27h-34.81ZM392.08 39.64h13.02c8.73 0 14.46-4.19 14.46-12.17s-5.73-12.22-14.46-12.22h-22.79v35.81h9.78V39.64Zm0-8.13v-8.08h12.47c3.49 0 5.39 1.5 5.39 4.04s-1.89 4.04-5.39 4.04h-12.47ZM443.82 14.65c-12.52 0-21.55 7.83-21.55 18.5s9.03 18.5 21.55 18.5 21.5-7.83 21.5-18.5-8.98-18.5-21.5-18.5Zm0 8.48c6.58 0 11.52 3.89 11.52 10.02s-4.94 10.02-11.52 10.02-11.52-3.89-11.52-10.02 4.94-10.02 11.52-10.02ZM31.38 10.97c-11.25 0-20.41 9.15-20.41 20.41s9.15 20.41 20.41 20.41 20.41-9.15 20.41-20.41-9.16-20.41-20.41-20.41Zm0 30.97c-5.83 0-10.56-4.73-10.56-10.56s4.73-10.56 10.56-10.56 10.56 4.73 10.56 10.56-4.73 10.56-10.56 10.56Z"/>
  <path d="M33.09 7.62V0c16.56.89 29.72 14.6 29.72 31.38S49.65 61.87 33.09 62.76v-7.62c12.34-.88 22.12-11.19 22.12-23.76S45.43 8.5 33.09 7.62ZM13.38 46.96a23.779 23.779 0 0 1-5.76-13.87H0c.4 7.39 3.35 14.1 7.98 19.26l5.39-5.39Zm16.29 15.8v-7.62c-5.29-.38-10.1-2.48-13.87-5.76l-5.39 5.39c5.17 4.64 11.88 7.59 19.26 7.98Z" fill="url(#linear-gradient)" fill-rule="evenodd"/>
</svg>