<svg xmlns="http://www.w3.org/2000/svg" viewBox="0 0 4437.5 1000">
  <path d="M2223.75 250c-172.5 0-296.88 112.5-296.88 281.25s139.85 281.25 312.51 281.25c104.21 0 196.09-41.25 252.96-110.78l-119.53-69.06c-31.56 34.53-79.53 54.69-133.43 54.69-74.85 0-138.44-39.06-162.04-101.56h437.82c3.43-17.5 5.47-35.62 5.47-54.69 0-168.59-124.22-281.09-296.88-281.09Zm-147.66 226.56c19.53-62.34 72.97-101.56 147.66-101.56s128.28 39.22 147.66 101.56h-295.32Zm-35.31-398.44-432.97 750-433.12-750h162.34l270.63 468.75 270.62-468.75h162.5ZM577.34 0l577.35 1000H0L577.34 0Zm2571.41 531.25C3148.75 625 3210 687.5 3305 687.5c64.38 0 112.66-29.22 137.5-76.88l120 69.22c-49.69 82.81-142.81 132.66-257.5 132.66-172.66 0-296.87-112.5-296.87-281.25S3132.5 250 3305 250c114.69 0 207.66 49.84 257.5 132.66l-120 69.22C3417.66 404.22 3369.38 375 3305 375c-94.84 0-156.25 62.5-156.25 156.25ZM4437.5 78.12v718.76h-140.62V78.12h140.62ZM3906.25 250c-172.5 0-296.87 112.5-296.87 281.25s140 281.25 312.5 281.25c104.21 0 196.09-41.25 252.96-110.78l-119.53-69.06c-31.56 34.53-79.53 54.69-133.43 54.69-74.85 0-138.44-39.06-162.04-101.56h437.82c3.43-17.5 5.46-35.62 5.46-54.69 0-168.59-124.21-281.09-296.87-281.09Zm-147.66 226.56c19.54-62.34 72.82-101.56 147.66-101.56s128.28 39.22 147.66 101.56h-295.32Zm-797.34-210.94v151.41c-15.62-4.53-32.19-7.66-50-7.66-90.78 0-156.25 62.5-156.25 156.25v231.25h-140.62V265.62H2755v143.75c0-79.38 92.34-143.75 206.25-143.75Z" fill="#fff"/>
</svg>